<?xml version="1.0" encoding="UTF-8" standalone="no"?>
<svg
   xmlns:dc="http://purl.org/dc/elements/1.1/"
   xmlns:cc="http://creativecommons.org/ns#"
   xmlns:rdf="http://www.w3.org/1999/02/22-rdf-syntax-ns#"
   xmlns:svg="http://www.w3.org/2000/svg"
   xmlns="http://www.w3.org/2000/svg"
   id="svg850"
   version="1.1"
   viewBox="0 0 210 297"
   height="297mm"
   width="210mm">
  <defs
     id="defs844" />
  <metadata
     id="metadata847">
    <rdf:RDF>
      <cc:Work
         rdf:about="">
        <dc:format>image/svg+xml</dc:format>
        <dc:type
           rdf:resource="http://purl.org/dc/dcmitype/StillImage" />
        <dc:title></dc:title>
      </cc:Work>
    </rdf:RDF>
  </metadata>
  <g
     id="layer1">
    <path
       id="path1636"
       style="fill:#ffffff;fill-opacity:1;stroke:none;stroke-width:0.264583;stroke-linecap:square;stroke-linejoin:round;stroke-miterlimit:4;stroke-dasharray:none;stroke-opacity:1;paint-order:fill markers stroke"
       d="m -39.895022,-51.106148 a 27.78125,27.78125 0 0 0 -0.02481,0.0181 27.78125,27.78125 0 0 0 -0.182933,0.13589 27.78125,27.78125 0 0 0 -0.181902,0.13798 27.78125,27.78125 0 0 0 -0.180867,0.13901 27.78125,27.78125 0 0 0 -0.179317,0.14004 27.78125,27.78125 0 0 0 -0.178283,0.14211 27.78125,27.78125 0 0 0 -0.177251,0.14367 27.78125,27.78125 0 0 0 -0.176217,0.1447 27.78125,27.78125 0 0 0 -0.174666,0.14623 27.78125,27.78125 0 0 0 -0.173632,0.1478 27.78125,27.78125 0 0 0 -0.172601,0.14936 27.78125,27.78125 0 0 0 -0.171048,0.15036 27.78125,27.78125 0 0 0 -0.170015,0.15192 27.78125,27.78125 0 0 0 -0.168465,0.15349 27.78125,27.78125 0 0 0 -0.167432,0.15452 27.78125,27.78125 0 0 0 -0.166398,0.15658 27.78125,27.78125 0 0 0 -0.164848,0.15708 27.78125,27.78125 0 0 0 -0.163297,0.15917 27.78125,27.78125 0 0 0 -0.162264,0.159679 27.78125,27.78125 0 0 0 -0.161231,0.16174 27.78125,27.78125 0 0 0 -0.15968,0.1628 27.78125,27.78125 0 0 0 -0.15813,0.164331 27.78125,27.78125 0 0 0 -0.157096,0.16536 27.78125,27.78125 0 0 0 -0.155546,0.1664 27.78125,27.78125 0 0 0 -0.153996,0.167929 27.78125,27.78125 0 0 0 -0.152962,0.16952 27.78125,27.78125 0 0 0 -0.151412,0.170021 27.78125,27.78125 0 0 0 -0.149862,0.172059 27.78125,27.78125 0 0 0 -0.148311,0.17261 27.78125,27.78125 0 0 0 -0.147278,0.17415 27.78125,27.78125 0 0 0 -0.145728,0.17571 27.78125,27.78125 0 0 0 -0.144177,0.17622 27.78125,27.78125 0 0 0 -0.143144,0.177741 27.78125,27.78125 0 0 0 -0.141076,0.17881 27.78125,27.78125 0 0 0 -0.140043,0.179839 27.78125,27.78125 0 0 0 -0.138493,0.181391 27.78125,27.78125 0 0 0 -0.136943,0.182409 27.78125,27.78125 0 0 0 -0.09767,0.13229 37.041667,37.041667 0 0 1 0.08992,0.1814 37.041667,37.041667 0 0 1 0.114721,0.237171 37.041667,37.041667 0 0 1 0.113172,0.23773 37.041667,37.041667 0 0 1 0.111621,0.23823 37.041667,37.041667 0 0 1 0.109554,0.239259 37.041667,37.041667 0 0 1 0.108004,0.2403 37.041667,37.041667 0 0 1 0.106453,0.24079 37.041667,37.041667 0 0 1 0.104903,0.241331 37.041667,37.041667 0 0 1 0.102836,0.242379 37.041667,37.041667 0 0 1 0.101286,0.24287 37.041667,37.041667 0 0 1 0.09922,0.24391 37.041667,37.041667 0 0 1 0.09767,0.24443 37.041667,37.041667 0 0 1 0.09612,0.24495 37.041667,37.041667 0 0 1 0.09405,0.24598 37.041667,37.041667 0 0 1 0.09302,0.24649 37.041667,37.041667 0 0 1 0.09043,0.24701 37.041667,37.041667 0 0 1 0.08888,0.24755 37.041667,37.041667 0 0 1 0.08733,0.248551 37.041667,37.041667 0 0 1 0.08578,0.24907 37.041667,37.041667 0 0 1 0.0832,0.24961 37.041667,37.041667 0 0 1 0.08216,0.25011 37.041667,37.041667 0 0 1 0.0801,0.25064 37.041667,37.041667 0 0 1 0.07855,0.25115 37.041667,37.041667 0 0 1 0.07648,0.25217 37.041667,37.041667 0 0 1 0.07493,0.25217 37.041667,37.041667 0 0 1 0.07286,0.25324 37.041667,37.041667 0 0 1 0.07131,0.2532 37.041667,37.041667 0 0 1 0.06925,0.25424 37.041667,37.041667 0 0 1 0.0677,0.25427 37.041667,37.041667 0 0 1 0.06563,0.25476 37.041667,37.041667 0 0 1 0.06408,0.25527 37.041667,37.041667 0 0 1 0.06201,0.2558 37.041667,37.041667 0 0 1 0.05994,0.25633 37.041667,37.041667 0 0 1 0.05891,0.25683 37.041667,37.041667 0 0 1 0.05633,0.25683 37.041667,37.041667 0 0 1 0.05478,0.25787 37.041667,37.041667 0 0 1 0.05323,0.25786 37.041667,37.041667 0 0 1 0.05116,0.25786 37.041667,37.041667 0 0 1 0.04909,0.2589 37.041667,37.041667 0 0 1 0.04754,0.25889 37.041667,37.041667 0 0 1 0.04599,0.25942 37.041667,37.041667 0 0 1 0.04341,0.25943 37.041667,37.041667 0 0 1 0.04237,0.25993 37.041667,37.041667 0 0 1 0.03979,0.25992 37.041667,37.041667 0 0 1 0.03824,0.26046 37.041667,37.041667 0 0 1 0.03669,0.26096 37.041667,37.041667 0 0 1 0.03462,0.26096 37.041667,37.041667 0 0 1 0.03256,0.26098 37.041667,37.041667 0 0 1 0.03101,0.26146 37.041667,37.041667 0 0 1 0.02894,0.26149 37.041667,37.041667 0 0 1 0.02687,0.26202 37.041667,37.041667 0 0 1 0.02532,0.26199 37.041667,37.041667 0 0 1 0.02325,0.26252 37.041667,37.041667 0 0 1 0.0217,0.26199 37.041667,37.041667 0 0 1 0.01964,0.26252 37.041667,37.041667 0 0 1 0.01809,0.26302 37.041667,37.041667 0 0 1 0.0155,0.26252 37.041667,37.041667 0 0 1 0.01447,0.26305 37.041667,37.041667 0 0 1 0.01189,0.26302 37.041667,37.041667 0 0 1 0.01033,0.26305 37.041667,37.041667 0 0 1 0.0088,0.26302 37.041667,37.041667 0 0 1 0.0062,0.26302 37.041667,37.041667 0 0 1 0.0052,0.26305 37.041667,37.041667 0 0 1 0.0026,0.26355 37.041667,37.041667 0 0 1 0.001,0.26302 37.041667,37.041667 0 0 1 0,0.007 37.041667,37.041667 0 0 1 -0.001,0.263029 37.041667,37.041667 0 0 1 -0.0026,0.26355 37.041667,37.041667 0 0 1 -0.0047,0.26305 37.041667,37.041667 0 0 1 -0.0067,0.26302 37.041667,37.041667 0 0 1 -0.0083,0.26355 37.041667,37.041667 0 0 1 -0.01033,0.263051 37.041667,37.041667 0 0 1 -0.0124,0.262489 37.041667,37.041667 0 0 1 -0.01395,0.26305 37.041667,37.041667 0 0 1 -0.01602,0.26302 37.041667,37.041667 0 0 1 -0.01757,0.26252 37.041667,37.041667 0 0 1 -0.01964,0.26252 37.041667,37.041667 0 0 1 -0.0217,0.26252 37.041667,37.041667 0 0 1 -0.02325,0.26199 37.041667,37.041667 0 0 1 -0.02532,0.26199 37.041667,37.041667 0 0 1 -0.02687,0.26202 37.041667,37.041667 0 0 1 -0.02894,0.26149 37.041667,37.041667 0 0 1 -0.03101,0.261459 37.041667,37.041667 0 0 1 -0.03256,0.26149 37.041667,37.041667 0 0 1 -0.03411,0.26098 37.041667,37.041667 0 0 1 -0.03669,0.260429 37.041667,37.041667 0 0 1 -0.03824,0.260462 37.041667,37.041667 0 0 1 -0.03979,0.26045 37.041667,37.041667 0 0 1 -0.04186,0.259929 37.041667,37.041667 0 0 1 -0.04393,0.259422 37.041667,37.041667 0 0 1 -0.04547,0.259397 37.041667,37.041667 0 0 1 -0.04754,0.258922 37.041667,37.041667 0 0 1 -0.04961,0.25837 37.041667,37.041667 0 0 1 -0.05116,0.25839 37.041667,37.041667 0 0 1 -0.05271,0.25786 37.041667,37.041667 0 0 1 -0.05478,0.257339 37.041667,37.041667 0 0 1 -0.05684,0.25736 37.041667,37.041667 0 0 1 -0.05839,0.256331 37.041667,37.041667 0 0 1 -0.05994,0.2563 37.041667,37.041667 0 0 1 -0.06201,0.255799 37.041667,37.041667 0 0 1 -0.06408,0.25527 37.041667,37.041667 0 0 1 -0.06563,0.255291 37.041667,37.041667 0 0 1 -0.0677,0.254241 37.041667,37.041667 0 0 1 -0.06925,0.253738 37.041667,37.041667 0 0 1 -0.07131,0.25373 37.041667,37.041667 0 0 1 -0.07286,0.252711 37.041667,37.041667 0 0 1 -0.07441,0.252699 37.041667,37.041667 0 0 1 -0.077,0.25164 37.041667,37.041667 0 0 1 -0.07803,0.251679 37.041667,37.041667 0 0 1 -0.0801,0.250643 37.041667,37.041667 0 0 1 -0.08217,0.250108 37.041667,37.041667 0 0 1 -0.0832,0.249581 37.041667,37.041667 0 0 1 -0.08578,0.249079 37.041667,37.041667 0 0 1 -0.08682,0.248571 37.041667,37.041667 0 0 1 -0.0894,0.24752 37.041667,37.041667 0 0 1 -0.09043,0.24702 37.041667,37.041667 0 0 1 -0.0925,0.24651 37.041667,37.041667 0 0 1 -0.09405,0.24598 37.041667,37.041667 0 0 1 -0.09612,0.24493 37.041667,37.041667 0 0 1 -0.09767,0.244438 37.041667,37.041667 0 0 1 -0.09922,0.243901 37.041667,37.041667 0 0 1 -0.101286,0.24288 37.041667,37.041667 0 0 1 -0.102836,0.242361 37.041667,37.041667 0 0 1 -0.104903,0.241861 37.041667,37.041667 0 0 1 -0.105937,0.2408 37.041667,37.041667 0 0 1 -0.10852,0.239789 37.041667,37.041667 0 0 1 -0.109554,0.23926 37.041667,37.041667 0 0 1 -0.111621,0.238728 37.041667,37.041667 0 0 1 -0.112655,0.237731 37.041667,37.041667 0 0 1 -0.115238,0.23667 37.041667,37.041667 0 0 1 -0.0925,0.18759 27.78125,27.78125 0 0 0 0.01809,0.02479 27.78125,27.78125 0 0 0 0.135909,0.182938 27.78125,27.78125 0 0 0 0.137976,0.181901 27.78125,27.78125 0 0 0 0.139009,0.180869 27.78125,27.78125 0 0 0 0.140043,0.179332 27.78125,27.78125 0 0 0 0.14211,0.178279 27.78125,27.78125 0 0 0 0.143661,0.177239 27.78125,27.78125 0 0 0 0.144694,0.17621 27.78125,27.78125 0 0 0 0.146244,0.17468 27.78125,27.78125 0 0 0 0.147795,0.17362 27.78125,27.78125 0 0 0 0.149345,0.17262 27.78125,27.78125 0 0 0 0.150378,0.17105 27.78125,27.78125 0 0 0 0.151929,0.170021 27.78125,27.78125 0 0 0 0.153479,0.1684595 27.78125,27.78125 0 0 0 0.154513,0.167429 27.78125,27.78125 0 0 0 0.156579,0.166391 27.78125,27.78125 0 0 0 0.157096,0.164841 27.78125,27.78125 0 0 0 0.159164,0.163298 27.78125,27.78125 0 0 0 0.160197,0.162271 27.78125,27.78125 0 0 0 0.16123,0.16124 27.78125,27.78125 0 0 0 0.162781,0.159671 27.78125,27.78125 0 0 0 0.16433,0.158139 27.78125,27.78125 0 0 0 0.165366,0.157091 27.78125,27.78125 0 0 0 0.166398,0.155548 27.78125,27.78125 0 0 0 0.167948,0.15398 27.78125,27.78125 0 0 0 0.169499,0.15299 27.78125,27.78125 0 0 0 0.170014,0.151392 27.78125,27.78125 0 0 0 0.172084,0.14986 27.78125,27.78125 0 0 0 0.172598,0.148328 27.78125,27.78125 0 0 0 0.174151,0.147262 27.78125,27.78125 0 0 0 0.175698,0.145738 27.78125,27.78125 0 0 0 0.176217,0.144171 27.78125,27.78125 0 0 0 0.177768,0.14314 27.78125,27.78125 0 0 0 0.178801,0.14107 27.78125,27.78125 0 0 0 0.179833,0.140049 27.78125,27.78125 0 0 0 0.181384,0.13851 27.78125,27.78125 0 0 0 0.182417,0.136922 27.78125,27.78125 0 0 0 0.132293,0.0977 37.041667,37.041667 0 0 1 0.181383,-0.0899 37.041667,37.041667 0 0 1 0.237195,-0.114721 37.041667,37.041667 0 0 1 0.237713,-0.11317 37.041667,37.041667 0 0 1 0.238228,-0.11162 37.041667,37.041667 0 0 1 0.239262,-0.10954 37.041667,37.041667 0 0 1 0.240295,-0.108001 37.041667,37.041667 0 0 1 0.240813,-0.106471 37.041667,37.041667 0 0 1 0.241329,-0.104909 37.041667,37.041667 0 0 1 0.242361,-0.10282 37.041667,37.041667 0 0 1 0.242879,-0.10128 37.041667,37.041667 0 0 1 0.243913,-0.0992 37.041667,37.041667 0 0 1 0.24443,-0.0977 37.041667,37.041667 0 0 1 0.244946,-0.0961 37.041667,37.041667 0 0 1 0.24598,-0.0946 37.041667,37.041667 0 0 1 0.246497,-0.0925 37.041667,37.041667 0 0 1 0.247013,-0.0904 37.041667,37.041667 0 0 1 0.24753,-0.0889 37.041667,37.041667 0 0 1 0.248564,-0.0873 37.041667,37.041667 0 0 1 0.249081,-0.0858 37.041667,37.041667 0 0 1 0.249597,-0.0837 37.041667,37.041667 0 0 1 0.250114,-0.0817 37.041667,37.041667 0 0 1 0.250631,-0.0801 37.041667,37.041667 0 0 1 0.251147,-0.0785 37.041667,37.041667 0 0 1 0.252181,-0.0765 37.041667,37.041667 0 0 1 0.252181,-0.0749 37.041667,37.041667 0 0 1 0.253215,-0.0729 37.041667,37.041667 0 0 1 0.253214,-0.0713 37.041667,37.041667 0 0 1 0.254248,-0.0692 37.041667,37.041667 0 0 1 0.254248,-0.0677 37.041667,37.041667 0 0 1 0.254765,-0.0656 37.041667,37.041667 0 0 1 0.255281,-0.0641 37.041667,37.041667 0 0 1 0.255799,-0.062 37.041667,37.041667 0 0 1 0.256315,-0.06 37.041667,37.041667 0 0 1 0.256832,-0.0589 37.041667,37.041667 0 0 1 0.256832,-0.0563 37.041667,37.041667 0 0 1 0.257865,-0.0548 37.041667,37.041667 0 0 1 0.257865,-0.0532 37.041667,37.041667 0 0 1 0.257866,-0.0512 37.041667,37.041667 0 0 1 0.258899,-0.0491 37.041667,37.041667 0 0 1 0.258899,-0.0476 37.041667,37.041667 0 0 1 0.259415,-0.046 37.041667,37.041667 0 0 1 0.259416,-0.0434 37.041667,37.041667 0 0 1 0.259932,-0.0424 37.041667,37.041667 0 0 1 0.259933,-0.0398 37.041667,37.041667 0 0 1 0.260449,-0.0382 37.041667,37.041667 0 0 1 0.260966,-0.0367 37.041667,37.041667 0 0 1 0.260966,-0.0346 37.041667,37.041667 0 0 1 0.260966,-0.0326 37.041667,37.041667 0 0 1 0.261483,-0.031 37.041667,37.041667 0 0 1 0.261483,-0.0289 37.041667,37.041667 0 0 1 0.261999,-0.026899 37.041667,37.041667 0 0 1 0.262,-0.02529 37.041667,37.041667 0 0 1 0.262516,-0.02331 37.041667,37.041667 0 0 1 0.262,-0.0217 37.041667,37.041667 0 0 1 0.262516,-0.01961 37.041667,37.041667 0 0 1 0.263033,-0.0181 37.041667,37.041667 0 0 1 0.262516,-0.01551 37.041667,37.041667 0 0 1 0.263033,-0.0145 37.041667,37.041667 0 0 1 0.263033,-0.01191 37.041667,37.041667 0 0 1 0.263033,-0.01029 37.041667,37.041667 0 0 1 0.263033,-0.009 37.041667,37.041667 0 0 1 0.263033,-0.006 37.041667,37.041667 0 0 1 0.263033,-0.005 37.041667,37.041667 0 0 1 0.26355,-0.003 37.041667,37.041667 0 0 1 0.263033,-0.0011 37.041667,37.041667 0 0 1 0.0067,0 37.041667,37.041667 0 0 1 0.263033,0.0011 37.041667,37.041667 0 0 1 0.26355,0.003 37.041667,37.041667 0 0 1 0.263033,0.005 37.041667,37.041667 0 0 1 0.263033,0.007 37.041667,37.041667 0 0 1 0.26355,0.008 37.041667,37.041667 0 0 1 0.263033,0.0104 37.041667,37.041667 0 0 1 0.262516,0.01241 37.041667,37.041667 0 0 1 0.263033,0.014 37.041667,37.041667 0 0 1 0.263033,0.01601 37.041667,37.041667 0 0 1 0.262516,0.01759 37.041667,37.041667 0 0 1 0.262517,0.01961 37.041667,37.041667 0 0 1 0.262516,0.02119 37.041667,37.041667 0 0 1 0.262,0.02379 37.041667,37.041667 0 0 1 0.261999,0.02479 37.041667,37.041667 0 0 1 0.261999,0.027399 37.041667,37.041667 0 0 1 0.261484,0.0289 37.041667,37.041667 0 0 1 0.261482,0.0305 37.041667,37.041667 0 0 1 0.261483,0.0331 37.041667,37.041667 0 0 1 0.260966,0.0341 37.041667,37.041667 0 0 1 0.260451,0.0367 37.041667,37.041667 0 0 1 0.260448,0.0382 37.041667,37.041667 0 0 1 0.260448,0.0398 37.041667,37.041667 0 0 1 0.259934,0.0419 37.041667,37.041667 0 0 1 0.259414,0.0439 37.041667,37.041667 0 0 1 0.259416,0.0455 37.041667,37.041667 0 0 1 0.2589,0.0476 37.041667,37.041667 0 0 1 0.258381,0.0496 37.041667,37.041667 0 0 1 0.258382,0.0506 37.041667,37.041667 0 0 1 0.257868,0.0532 37.041667,37.041667 0 0 1 0.257347,0.0548 37.041667,37.041667 0 0 1 0.257349,0.0569 37.041667,37.041667 0 0 1 0.256316,0.0584 37.041667,37.041667 0 0 1 0.256315,0.0599 37.041667,37.041667 0 0 1 0.255799,0.062 37.041667,37.041667 0 0 1 0.25528,0.0641 37.041667,37.041667 0 0 1 0.255281,0.0656 37.041667,37.041667 0 0 1 0.254249,0.0677 37.041667,37.041667 0 0 1 0.254248,0.0692 37.041667,37.041667 0 0 1 0.253215,0.0713 37.041667,37.041667 0 0 1 0.252695,0.0728 37.041667,37.041667 0 0 1 0.252698,0.0744 37.041667,37.041667 0 0 1 0.251664,0.077 37.041667,37.041667 0 0 1 0.251667,0.078 37.041667,37.041667 0 0 1 0.250629,0.0801 37.041667,37.041667 0 0 1 0.250116,0.0817 37.041667,37.041667 0 0 1 0.249594,0.0837 37.041667,37.041667 0 0 1 0.249082,0.0858 37.041667,37.041667 0 0 1 0.248563,0.0868 37.041667,37.041667 0 0 1 0.24753,0.0889 37.041667,37.041667 0 0 1 0.247013,0.091 37.041667,37.041667 0 0 1 0.246496,0.0925 37.041667,37.041667 0 0 1 0.245981,0.0941 37.041667,37.041667 0 0 1 0.2449457,0.0961 37.041667,37.041667 0 0 1 0.24443,0.0977 37.041667,37.041667 0 0 1 0.243914,0.0992 37.041667,37.041667 0 0 1 0.242879,0.10128 37.041667,37.041667 0 0 1 0.242361,0.102841 37.041667,37.041667 0 0 1 0.241845,0.10491 37.041667,37.041667 0 0 1 0.240814,0.105939 37.041667,37.041667 0 0 1 0.239778,0.108511 37.041667,37.041667 0 0 1 0.239263,0.109561 37.041667,37.041667 0 0 1 0.238744,0.111098 37.041667,37.041667 0 0 1 0.237712,0.11316 37.041667,37.041667 0 0 1 0.236678,0.11525 37.041667,37.041667 0 0 1 0.187584,0.0925 27.78125,27.78125 0 0 0 0.02482,-0.0181 27.78125,27.78125 0 0 0 0.182936,-0.13589 27.78125,27.78125 0 0 0 0.181901,-0.13798 27.78125,27.78125 0 0 0 0.180866,-0.139009 27.78125,27.78125 0 0 0 0.179319,-0.140571 27.78125,27.78125 0 0 0 0.178282,-0.141578 27.78125,27.78125 0 0 0 0.177252,-0.143672 27.78125,27.78125 0 0 0 0.176215,-0.1447 27.78125,27.78125 0 0 0 0.174667,-0.14623 27.78125,27.78125 0 0 0 0.173633,-0.147799 27.78125,27.78125 0 0 0 0.172598,-0.14936 27.78125,27.78125 0 0 0 0.171051,-0.15036 27.78125,27.78125 0 0 0 0.170013,-0.151921 27.78125,27.78125 0 0 0 0.168466,-0.15349 27.78125,27.78125 0 0 0 0.167433,-0.15502 27.78125,27.78125 0 0 0 0.166397,-0.15608 27.78125,27.78125 0 0 0 0.164849,-0.15708 27.78125,27.78125 0 0 0 0.163295,-0.159168 27.78125,27.78125 0 0 0 0.162266,-0.160211 27.78125,27.78125 0 0 0 0.16123,-0.161211 27.78125,27.78125 0 0 0 0.159681,-0.1628 27.78125,27.78125 0 0 0 0.158128,-0.16433 27.78125,27.78125 0 0 0 0.157096,-0.16536 27.78125,27.78125 0 0 0 0.155546,-0.166399 27.78125,27.78125 0 0 0 0.153998,-0.1679305 27.78125,27.78125 0 0 0 0.152961,-0.169518 27.78125,27.78125 0 0 0 0.151413,-0.170522 27.78125,27.78125 0 0 0 0.14986,-0.171558 27.78125,27.78125 0 0 0 0.148313,-0.172612 27.78125,27.78125 0 0 0 0.147277,-0.174148 27.78125,27.78125 0 0 0 0.145727,-0.17571 27.78125,27.78125 0 0 0 0.144177,-0.176221 27.78125,27.78125 0 0 0 0.143145,-0.177741 27.78125,27.78125 0 0 0 0.141076,-0.178809 27.78125,27.78125 0 0 0 0.140044,-0.180361 27.78125,27.78125 0 0 0 0.138493,-0.180869 27.78125,27.78125 0 0 0 0.136943,-0.182412 27.78125,27.78125 0 0 0 0.09767,-0.132289 37.041667,37.041667 0 0 1 -0.08992,-0.181401 37.041667,37.041667 0 0 1 -0.114721,-0.237169 37.041667,37.041667 0 0 1 -0.113172,-0.237729 37.041667,37.041667 0 0 1 -0.111623,-0.23823 37.041667,37.041667 0 0 1 -0.109553,-0.23926 37.041667,37.041667 0 0 1 -0.108003,-0.2403 37.041667,37.041667 0 0 1 -0.106453,-0.24079 37.041667,37.041667 0 0 1 -0.104904,-0.241331 37.041667,37.041667 0 0 1 -0.102836,-0.24238 37.041667,37.041667 0 0 1 -0.101285,-0.242869 37.041667,37.041667 0 0 1 -0.09922,-0.243911 37.041667,37.041667 0 0 1 -0.09767,-0.24443 37.041667,37.041667 0 0 1 -0.09612,-0.244949 37.041667,37.041667 0 0 1 -0.09405,-0.24598 37.041667,37.041667 0 0 1 -0.09302,-0.246492 37.041667,37.041667 0 0 1 -0.09043,-0.247009 37.041667,37.041667 0 0 1 -0.08888,-0.24755 37.041667,37.041667 0 0 1 -0.08733,-0.248549 37.041667,37.041667 0 0 1 -0.08578,-0.249071 37.041667,37.041667 0 0 1 -0.0832,-0.249608 37.041667,37.041667 0 0 1 -0.08216,-0.250111 37.041667,37.041667 0 0 1 -0.0801,-0.250639 37.041667,37.041667 0 0 1 -0.07855,-0.251651 37.041667,37.041667 0 0 1 -0.07648,-0.251669 37.041667,37.041667 0 0 1 -0.07493,-0.252172 37.041667,37.041667 0 0 1 -0.07286,-0.25324 37.041667,37.041667 0 0 1 -0.07131,-0.253199 37.041667,37.041667 0 0 1 -0.06925,-0.25424 37.041667,37.041667 0 0 1 -0.0677,-0.25427 37.041667,37.041667 0 0 1 -0.06563,-0.25476 37.041667,37.041667 0 0 1 -0.06408,-0.25527 37.041667,37.041667 0 0 1 -0.06201,-0.255801 37.041667,37.041667 0 0 1 -0.05994,-0.256329 37.041667,37.041667 0 0 1 -0.05891,-0.256831 37.041667,37.041667 0 0 1 -0.05633,-0.256828 37.041667,37.041667 0 0 1 -0.05478,-0.257871 37.041667,37.041667 0 0 1 -0.05323,-0.25786 37.041667,37.041667 0 0 1 -0.05116,-0.257861 37.041667,37.041667 0 0 1 -0.04909,-0.2589 37.041667,37.041667 0 0 1 -0.04754,-0.258889 37.041667,37.041667 0 0 1 -0.04599,-0.259419 37.041667,37.041667 0 0 1 -0.04341,-0.259432 37.041667,37.041667 0 0 1 -0.04237,-0.259929 37.041667,37.041667 0 0 1 -0.03979,-0.259921 37.041667,37.041667 0 0 1 -0.03824,-0.260459 37.041667,37.041667 0 0 1 -0.03669,-0.260961 37.041667,37.041667 0 0 1 -0.03462,-0.260959 37.041667,37.041667 0 0 1 -0.03256,-0.260979 37.041667,37.041667 0 0 1 -0.03101,-0.261462 37.041667,37.041667 0 0 1 -0.02894,-0.262019 37.041667,37.041667 0 0 1 -0.02687,-0.26149 37.041667,37.041667 0 0 1 -0.02532,-0.26199 37.041667,37.041667 0 0 1 -0.02326,-0.26252 37.041667,37.041667 0 0 1 -0.0217,-0.26199 37.041667,37.041667 0 0 1 -0.01963,-0.26252 37.041667,37.041667 0 0 1 -0.0181,-0.26302 37.041667,37.041667 0 0 1 -0.01551,-0.26252 37.041667,37.041667 0 0 1 -0.01447,-0.26305 37.041667,37.041667 0 0 1 -0.01188,-0.26302 37.041667,37.041667 0 0 1 -0.01032,-0.26305 37.041667,37.041667 0 0 1 -0.0088,-0.26302 37.041667,37.041667 0 0 1 -0.0062,-0.26302 37.041667,37.041667 0 0 1 -0.0052,-0.26355 37.041667,37.041667 0 0 1 -0.0026,-0.26305 37.041667,37.041667 0 0 1 -0.0011,-0.26302 37.041667,37.041667 0 0 1 0,-0.007 37.041667,37.041667 0 0 1 0.0011,-0.26302 37.041667,37.041667 0 0 1 0.0026,-0.26355 37.041667,37.041667 0 0 1 0.0047,-0.26305 37.041667,37.041667 0 0 1 0.0067,-0.26302 37.041667,37.041667 0 0 1 0.0083,-0.26355 37.041667,37.041667 0 0 1 0.01032,-0.26305 37.041667,37.041667 0 0 1 0.01241,-0.26302 37.041667,37.041667 0 0 1 0.01394,-0.26252 37.041667,37.041667 0 0 1 0.01603,-0.26302 37.041667,37.041667 0 0 1 0.01757,-0.26252 37.041667,37.041667 0 0 1 0.01963,-0.26252 37.041667,37.041667 0 0 1 0.02172,-0.26252 37.041667,37.041667 0 0 1 0.02326,-0.26199 37.041667,37.041667 0 0 1 0.02532,-0.26199 37.041667,37.041667 0 0 1 0.02687,-0.26202 37.041667,37.041667 0 0 1 0.02894,-0.26149 37.041667,37.041667 0 0 1 0.03101,-0.26146 37.041667,37.041667 0 0 1 0.03256,-0.26149 37.041667,37.041667 0 0 1 0.03411,-0.26098 37.041667,37.041667 0 0 1 0.03669,-0.26043 37.041667,37.041667 0 0 1 0.03824,-0.26046 37.041667,37.041667 0 0 1 0.03979,-0.26045 37.041667,37.041667 0 0 1 0.04186,-0.25993 37.041667,37.041667 0 0 1 0.04393,-0.25942 37.041667,37.041667 0 0 1 0.04548,-0.2594 37.041667,37.041667 0 0 1 0.04754,-0.25892 37.041667,37.041667 0 0 1 0.04961,-0.25837 37.041667,37.041667 0 0 1 0.05116,-0.25839 37.041667,37.041667 0 0 1 0.05271,-0.25786 37.041667,37.041667 0 0 1 0.05478,-0.25734 37.041667,37.041667 0 0 1 0.05684,-0.25736 37.041667,37.041667 0 0 1 0.05839,-0.25633 37.041667,37.041667 0 0 1 0.05995,-0.2563 37.041667,37.041667 0 0 1 0.06201,-0.2558 37.041667,37.041667 0 0 1 0.06408,-0.25527 37.041667,37.041667 0 0 1 0.06563,-0.25529 37.041667,37.041667 0 0 1 0.0677,-0.25424 37.041667,37.041667 0 0 1 0.06925,-0.25427 37.041667,37.041667 0 0 1 0.07131,-0.2532 37.041667,37.041667 0 0 1 0.07286,-0.25321 37.041667,37.041667 0 0 1 0.07441,-0.2522 37.041667,37.041667 0 0 1 0.077,-0.25164 37.041667,37.041667 0 0 1 0.07803,-0.25168 37.041667,37.041667 0 0 1 0.0801,-0.25064 37.041667,37.041667 0 0 1 0.08217,-0.25011 37.041667,37.041667 0 0 1 0.0832,-0.24958 37.041667,37.041667 0 0 1 0.08578,-0.24908 37.041667,37.041667 0 0 1 0.08682,-0.24857 37.041667,37.041667 0 0 1 0.0894,-0.24752 37.041667,37.041667 0 0 1 0.09043,-0.24702 37.041667,37.041667 0 0 1 0.0925,-0.24651 37.041667,37.041667 0 0 1 0.09405,-0.24598 37.041667,37.041667 0 0 1 0.09612,-0.24493 37.041667,37.041667 0 0 1 0.09767,-0.24444 37.041667,37.041667 0 0 1 0.09922,-0.2439 37.041667,37.041667 0 0 1 0.101286,-0.24288 37.041667,37.041667 0 0 1 0.102835,-0.24236 37.041667,37.041667 0 0 1 0.104902,-0.24186 37.041667,37.041667 0 0 1 0.105939,-0.2408 37.041667,37.041667 0 0 1 0.108519,-0.23979 37.041667,37.041667 0 0 1 0.109554,-0.23926 37.041667,37.041667 0 0 1 0.111622,-0.23873 37.041667,37.041667 0 0 1 0.112654,-0.23773 37.041667,37.041667 0 0 1 0.115237,-0.23667 37.041667,37.041667 0 0 1 0.0925,-0.18759 27.78125,27.78125 0 0 0 -0.0181,-0.0248 27.78125,27.78125 0 0 0 -0.135908,-0.18294 27.78125,27.78125 0 0 0 -0.137978,-0.1819 27.78125,27.78125 0 0 0 -0.138995,-0.180861 27.78125,27.78125 0 0 0 -0.140042,-0.17933 27.78125,27.78125 0 0 0 -0.14211,-0.17828 27.78125,27.78125 0 0 0 -0.143661,-0.177239 27.78125,27.78125 0 0 0 -0.144695,-0.176211 27.78125,27.78125 0 0 0 -0.146243,-0.17468 27.78125,27.78125 0 0 0 -0.147794,-0.173619 27.78125,27.78125 0 0 0 -0.149346,-0.17262 27.78125,27.78125 0 0 0 -0.150379,-0.17105 27.78125,27.78125 0 0 0 -0.151929,-0.170021 27.78125,27.78125 0 0 0 -0.153477,-0.16846 27.78125,27.78125 0 0 0 -0.154514,-0.167429 27.78125,27.78125 0 0 0 -0.156578,-0.166391 27.78125,27.78125 0 0 0 -0.157096,-0.16484 27.78125,27.78125 0 0 0 -0.159165,-0.16383 27.78125,27.78125 0 0 0 -0.160198,-0.16174 27.78125,27.78125 0 0 0 -0.161229,-0.16124 27.78125,27.78125 0 0 0 -0.162782,-0.159669 27.78125,27.78125 0 0 0 -0.16433,-0.15814 27.78125,27.78125 0 0 0 -0.165365,-0.15709 27.78125,27.78125 0 0 0 -0.166399,-0.15555 27.78125,27.78125 0 0 0 -0.167947,-0.15398 27.78125,27.78125 0 0 0 -0.1695,-0.152991 27.78125,27.78125 0 0 0 -0.170013,-0.151389 27.78125,27.78125 0 0 0 -0.172083,-0.14986 27.78125,27.78125 0 0 0 -0.1726,-0.14833 27.78125,27.78125 0 0 0 -0.174149,-0.14726 27.78125,27.78125 0 0 0 -0.175699,-0.145741 27.78125,27.78125 0 0 0 -0.176218,-0.14417 27.78125,27.78125 0 0 0 -0.177766,-0.143139 27.78125,27.78125 0 0 0 -0.178803,-0.141071 27.78125,27.78125 0 0 0 -0.179832,-0.140049 27.78125,27.78125 0 0 0 -0.181385,-0.13851 27.78125,27.78125 0 0 0 -0.182417,-0.13692 27.78125,27.78125 0 0 0 -0.132291,-0.0977 37.041667,37.041667 0 0 1 -0.181385,0.0899 37.041667,37.041667 0 0 1 -0.237194,0.11472 37.041667,37.041667 0 0 1 -0.237712,0.113169 37.041667,37.041667 0 0 1 -0.238229,0.111621 37.041667,37.041667 0 0 1 -0.239262,0.109539 37.041667,37.041667 0 0 1 -0.240295,0.108 37.041667,37.041667 0 0 1 -0.240813,0.10647 37.041667,37.041667 0 0 1 -0.241329,0.10491 37.041667,37.041667 0 0 1 -0.242361,0.102821 37.041667,37.041667 0 0 1 -0.24288,0.10128 37.041667,37.041667 0 0 1 -0.243914,0.0992 37.041667,37.041667 0 0 1 -0.24443,0.0977 37.041667,37.041667 0 0 1 -0.2449457,0.0961 37.041667,37.041667 0 0 1 -0.245978,0.094 37.041667,37.041667 0 0 1 -0.246496,0.0925 37.041667,37.041667 0 0 1 -0.247015,0.091 37.041667,37.041667 0 0 1 -0.247531,0.0889 37.041667,37.041667 0 0 1 -0.248563,0.0873 37.041667,37.041667 0 0 1 -0.249078,0.0853 37.041667,37.041667 0 0 1 -0.249598,0.0837 37.041667,37.041667 0 0 1 -0.250116,0.0822 37.041667,37.041667 0 0 1 -0.250629,0.0801 37.041667,37.041667 0 0 1 -0.251148,0.0785 37.041667,37.041667 0 0 1 -0.252182,0.0765 37.041667,37.041667 0 0 1 -0.25218,0.0749 37.041667,37.041667 0 0 1 -0.253214,0.0729 37.041667,37.041667 0 0 1 -0.253214,0.0708 37.041667,37.041667 0 0 1 -0.254249,0.0697 37.041667,37.041667 0 0 1 -0.254248,0.0672 37.041667,37.041667 0 0 1 -0.254765,0.0661 37.041667,37.041667 0 0 1 -0.255281,0.0636 37.041667,37.041667 0 0 1 -0.255799,0.0625 37.041667,37.041667 0 0 1 -0.256315,0.06 37.041667,37.041667 0 0 1 -0.256831,0.0589 37.041667,37.041667 0 0 1 -0.256834,0.0563 37.041667,37.041667 0 0 1 -0.257863,0.0548 37.041667,37.041667 0 0 1 -0.257865,0.0532 37.041667,37.041667 0 0 1 -0.257866,0.0512 37.041667,37.041667 0 0 1 -0.2589,0.0491 37.041667,37.041667 0 0 1 -0.2589,0.0476 37.041667,37.041667 0 0 1 -0.259413,0.046 37.041667,37.041667 0 0 1 -0.259416,0.0434 37.041667,37.041667 0 0 1 -0.259932,0.0424 37.041667,37.041667 0 0 1 -0.259935,0.0398 37.041667,37.041667 0 0 1 -0.260448,0.0382 37.041667,37.041667 0 0 1 -0.260966,0.0367 37.041667,37.041667 0 0 1 -0.260967,0.0346 37.041667,37.041667 0 0 1 -0.260964,0.0326 37.041667,37.041667 0 0 1 -0.261485,0.031 37.041667,37.041667 0 0 1 -0.261482,0.0289 37.041667,37.041667 0 0 1 -0.261999,0.0269 37.041667,37.041667 0 0 1 -0.262,0.0253 37.041667,37.041667 0 0 1 -0.262516,0.0233 37.041667,37.041667 0 0 1 -0.262,0.0217 37.041667,37.041667 0 0 1 -0.262516,0.0196 37.041667,37.041667 0 0 1 -0.263033,0.0181 37.041667,37.041667 0 0 1 -0.262516,0.0155 37.041667,37.041667 0 0 1 -0.263033,0.0145 37.041667,37.041667 0 0 1 -0.263033,0.0119 37.041667,37.041667 0 0 1 -0.263033,0.0103 37.041667,37.041667 0 0 1 -0.263033,0.009 37.041667,37.041667 0 0 1 -0.263033,0.006 37.041667,37.041667 0 0 1 -0.263033,0.005 37.041667,37.041667 0 0 1 -0.26355,0.003 37.041667,37.041667 0 0 1 -0.263033,0.001 37.041667,37.041667 0 0 1 -0.0067,0 37.041667,37.041667 0 0 1 -0.263033,-0.001 37.041667,37.041667 0 0 1 -0.26355,-0.003 37.041667,37.041667 0 0 1 -0.263033,-0.005 37.041667,37.041667 0 0 1 -0.263033,-0.007 37.041667,37.041667 0 0 1 -0.26355,-0.008 37.041667,37.041667 0 0 1 -0.263033,-0.0104 37.041667,37.041667 0 0 1 -0.262516,-0.0124 37.041667,37.041667 0 0 1 -0.263033,-0.014 37.041667,37.041667 0 0 1 -0.263033,-0.016 37.041667,37.041667 0 0 1 -0.262516,-0.0176 37.041667,37.041667 0 0 1 -0.262517,-0.0196 37.041667,37.041667 0 0 1 -0.262516,-0.0217 37.041667,37.041667 0 0 1 -0.262,-0.0233 37.041667,37.041667 0 0 1 -0.261999,-0.0253 37.041667,37.041667 0 0 1 -0.262023,-0.02687 37.041667,37.041667 0 0 1 -0.261483,-0.0289 37.041667,37.041667 0 0 1 -0.261483,-0.031 37.041667,37.041667 0 0 1 -0.261483,-0.0325 37.041667,37.041667 0 0 1 -0.260966,-0.0346 37.041667,37.041667 0 0 1 -0.260449,-0.0362 37.041667,37.041667 0 0 1 -0.260449,-0.0382 37.041667,37.041667 0 0 1 -0.260449,-0.0398 37.041667,37.041667 0 0 1 -0.259933,-0.0424 37.041667,37.041667 0 0 1 -0.259415,-0.0434 37.041667,37.041667 0 0 1 -0.259416,-0.0455 37.041667,37.041667 0 0 1 -0.258899,-0.0476 37.041667,37.041667 0 0 1 -0.258382,-0.0496 37.041667,37.041667 0 0 1 -0.258382,-0.0512 37.041667,37.041667 0 0 1 -0.257866,-0.0527 37.041667,37.041667 0 0 1 -0.257348,-0.0548 37.041667,37.041667 0 0 1 -0.257349,-0.0569 37.041667,37.041667 0 0 1 -0.256315,-0.0584 37.041667,37.041667 0 0 1 -0.256315,-0.0599 37.041667,37.041667 0 0 1 -0.255799,-0.062 37.041667,37.041667 0 0 1 -0.255281,-0.0641 37.041667,37.041667 0 0 1 -0.255282,-0.0656 37.041667,37.041667 0 0 1 -0.254247,-0.0677 37.041667,37.041667 0 0 1 -0.254248,-0.0692 37.041667,37.041667 0 0 1 -0.253214,-0.0713 37.041667,37.041667 0 0 1 -0.252698,-0.0728 37.041667,37.041667 0 0 1 -0.252698,-0.0749 37.041667,37.041667 0 0 1 -0.251664,-0.0765 37.041667,37.041667 0 0 1 -0.251664,-0.078 37.041667,37.041667 0 0 1 -0.250631,-0.0801 37.041667,37.041667 0 0 1 -0.250114,-0.0822 37.041667,37.041667 0 0 1 -0.249597,-0.0832 37.041667,37.041667 0 0 1 -0.249081,-0.0858 37.041667,37.041667 0 0 1 -0.248564,-0.0868 37.041667,37.041667 0 0 1 -0.24753,-0.0894 37.041667,37.041667 0 0 1 -0.247012,-0.0904 37.041667,37.041667 0 0 1 -0.246498,-0.0925 37.041667,37.041667 0 0 1 -0.24598,-0.0941 37.041667,37.041667 0 0 1 -0.244946,-0.0961 37.041667,37.041667 0 0 1 -0.24443,-0.0977 37.041667,37.041667 0 0 1 -0.243913,-0.0997 37.041667,37.041667 0 0 1 -0.242879,-0.10078 37.041667,37.041667 0 0 1 -0.242361,-0.10284 37.041667,37.041667 0 0 1 -0.241846,-0.10491 37.041667,37.041667 0 0 1 -0.240813,-0.10644 37.041667,37.041667 0 0 1 -0.239778,-0.10801 37.041667,37.041667 0 0 1 -0.239262,-0.10956 37.041667,37.041667 0 0 1 -0.238746,-0.1116 37.041667,37.041667 0 0 1 -0.237711,-0.11266 37.041667,37.041667 0 0 1 -0.236677,-0.11525 37.041667,37.041667 0 0 1 -0.187586,-0.0925 z" />
  </g>
</svg>
