<?xml version="1.0" encoding="UTF-8" standalone="no"?>
<svg
   xmlns:dc="http://purl.org/dc/elements/1.1/"
   xmlns:cc="http://creativecommons.org/ns#"
   xmlns:rdf="http://www.w3.org/1999/02/22-rdf-syntax-ns#"
   xmlns:svg="http://www.w3.org/2000/svg"
   xmlns="http://www.w3.org/2000/svg"
   xmlns:sodipodi="http://sodipodi.sourceforge.net/DTD/sodipodi-0.dtd"
   xmlns:inkscape="http://www.inkscape.org/namespaces/inkscape"
   sodipodi:docname="union.svg"
   inkscape:version="1.0 (4035a4fb49, 2020-05-01)"
   id="svg850"
   version="1.1"
   viewBox="0 0 210 297"
   height="297mm"
   width="210mm">
  <defs
     id="defs844" />
  <sodipodi:namedview
     inkscape:window-maximized="0"
     inkscape:window-y="0"
     inkscape:window-x="234"
     inkscape:window-height="1040"
     inkscape:window-width="1260"
     showgrid="false"
     inkscape:document-rotation="0"
     inkscape:current-layer="layer1"
     inkscape:document-units="mm"
     inkscape:cy="560"
     inkscape:cx="400"
     inkscape:zoom="0.35"
     inkscape:pageshadow="2"
     inkscape:pageopacity="0.0"
     borderopacity="1.0"
     bordercolor="#666666"
     pagecolor="#ffffff"
     id="base" />
  <metadata
     id="metadata847">
    <rdf:RDF>
      <cc:Work
         rdf:about="">
        <dc:format>image/svg+xml</dc:format>
        <dc:type
           rdf:resource="http://purl.org/dc/dcmitype/StillImage" />
        <dc:title></dc:title>
      </cc:Work>
    </rdf:RDF>
  </metadata>
  <g
     id="layer1"
     inkscape:groupmode="layer"
     inkscape:label="Capa 1">
    <path
       id="circle1583"
       style="fill:#ffffff;fill-opacity:1;stroke:none;stroke-width:0.264583;stroke-linecap:square;stroke-linejoin:round;stroke-miterlimit:4;stroke-dasharray:none;stroke-opacity:1;paint-order:fill markers stroke"
       d="m 41.57738,-31.303911 a 37.041667,37.041667 0 0 0 -0.120922,0.13695 37.041667,37.041667 0 0 0 -0.172082,0.19894 37.041667,37.041667 0 0 0 -0.171051,0.19999 37.041667,37.041667 0 0 0 -0.169497,0.20154 37.041667,37.041667 0 0 0 -0.168466,0.20256 37.041667,37.041667 0 0 0 -0.166399,0.20363 37.041667,37.041667 0 0 0 -0.165364,0.20513 37.041667,37.041667 0 0 0 -0.163815,0.20619 37.041667,37.041667 0 0 0 -0.162263,0.20722 37.041667,37.041667 0 0 0 -0.16123,0.20828 37.041667,37.041667 0 0 0 -0.159164,0.20928 37.041667,37.041667 0 0 0 -0.15813,0.21082 37.041667,37.041667 0 0 0 -0.156062,0.21188 37.041667,37.041667 0 0 0 -0.15503,0.21291 37.041667,37.041667 0 0 0 -0.153479,0.21395 37.041667,37.041667 0 0 0 -0.151412,0.21497 37.041667,37.041667 0 0 0 -0.150378,0.216 37.041667,37.041667 0 0 0 -0.148828,0.21704 37.041667,37.041667 0 0 0 -0.147278,0.2186 37.041667,37.041667 0 0 0 -0.145727,0.2191 37.041667,37.041667 0 0 0 -0.144178,0.22016 37.041667,37.041667 0 0 0 -0.14211,0.22167 37.041667,37.041667 0 0 0 -0.141076,0.22222 37.041667,37.041667 0 0 0 -0.139527,0.22323 37.041667,37.041667 0 0 0 -0.137976,0.22429 37.041667,37.041667 0 0 0 -0.135909,0.22532 37.041667,37.041667 0 0 0 -0.134359,0.22632 37.041667,37.041667 0 0 0 -0.133325,0.22739 37.041667,37.041667 0 0 0 -0.131258,0.22788 37.041667,37.041667 0 0 0 -0.129708,0.22895 37.041667,37.041667 0 0 0 -0.128157,0.23048 37.041667,37.041667 0 0 0 -0.126091,0.23047 37.041667,37.041667 0 0 0 -0.125057,0.23202 37.041667,37.041667 0 0 0 -0.12299,0.23254 37.041667,37.041667 0 0 0 -0.121439,0.23357 37.041667,37.041667 0 0 0 -0.11989,0.23461 37.041667,37.041667 0 0 0 -0.118339,0.23513 37.041667,37.041667 0 0 0 -0.02377,0.0486 27.78125,27.78125 0 0 1 0.116272,0.15918 27.78125,27.78125 0 0 1 0.133325,0.18499 27.78125,27.78125 0 0 1 0.131258,0.18656 27.78125,27.78125 0 0 1 0.129708,0.18706 27.78125,27.78125 0 0 1 0.128675,0.18862 27.78125,27.78125 0 0 1 0.126607,0.18913 27.78125,27.78125 0 0 1 0.125573,0.19068 27.78125,27.78125 0 0 1 0.123507,0.19122 27.78125,27.78125 0 0 1 0.122473,0.19274 27.78125,27.78125 0 0 1 0.120406,0.19328 27.78125,27.78125 0 0 1 0.118856,0.19431 27.78125,27.78125 0 0 1 0.117822,0.19585 27.78125,27.78125 0 0 1 0.115756,0.19637 27.78125,27.78125 0 0 1 0.114204,0.19741 27.78125,27.78125 0 0 1 0.112139,0.1979 27.78125,27.78125 0 0 1 0.111104,0.19947 27.78125,27.78125 0 0 1 0.109037,0.2 27.78125,27.78125 0 0 1 0.108004,0.20101 27.78125,27.78125 0 0 1 0.105937,0.20156 27.78125,27.78125 0 0 1 0.104386,0.20306 27.78125,27.78125 0 0 1 0.102319,0.20363 27.78125,27.78125 0 0 1 0.101286,0.20412 27.78125,27.78125 0 0 1 0.09922,0.20513 27.78125,27.78125 0 0 1 0.09767,0.20619 27.78125,27.78125 0 0 1 0.0956,0.20672 27.78125,27.78125 0 0 1 0.09457,0.20775 27.78125,27.78125 0 0 1 0.0925,0.20826 27.78125,27.78125 0 0 1 0.09043,0.20928 27.78125,27.78125 0 0 1 0.0894,0.20979 27.78125,27.78125 0 0 1 0.08733,0.21035 27.78125,27.78125 0 0 1 0.08527,0.21134 27.78125,27.78125 0 0 1 0.08423,0.21188 27.78125,27.78125 0 0 1 0.08217,0.21291 27.78125,27.78125 0 0 1 0.0801,0.21342 27.78125,27.78125 0 0 1 0.07855,0.21394 27.78125,27.78125 0 0 1 0.077,0.21444 27.78125,27.78125 0 0 1 0.07545,0.21551 27.78125,27.78125 0 0 1 0.07286,0.216 27.78125,27.78125 0 0 1 0.07183,0.21601 27.78125,27.78125 0 0 1 0.06976,0.21704 27.78125,27.78125 0 0 1 0.06821,0.21756 27.78125,27.78125 0 0 1 0.06615,0.2186 27.78125,27.78125 0 0 1 0.06408,0.21857 27.78125,27.78125 0 0 1 0.06304,0.21913 27.78125,27.78125 0 0 1 0.06046,0.21961 27.78125,27.78125 0 0 1 0.05943,0.22015 27.78125,27.78125 0 0 1 0.05684,0.22067 27.78125,27.78125 0 0 1 0.05581,0.22116 27.78125,27.78125 0 0 1 0.05323,0.2217 27.78125,27.78125 0 0 1 0.05168,0.22219 27.78125,27.78125 0 0 1 0.05012,0.22223 27.78125,27.78125 0 0 1 0.04806,0.22272 27.78125,27.78125 0 0 1 0.04651,0.22323 27.78125,27.78125 0 0 1 0.04444,0.22376 27.78125,27.78125 0 0 1 0.04237,0.22429 27.78125,27.78125 0 0 1 0.04082,0.22426 27.78125,27.78125 0 0 1 0.03876,0.22429 27.78125,27.78125 0 0 1 0.03721,0.22532 27.78125,27.78125 0 0 1 0.03514,0.22479 27.78125,27.78125 0 0 1 0.03359,0.22582 27.78125,27.78125 0 0 1 0.03152,0.22582 27.78125,27.78125 0 0 1 0.02997,0.22582 27.78125,27.78125 0 0 1 0.02739,0.22635 27.78125,27.78125 0 0 1 0.02635,0.2263301 27.78125,27.78125 0 0 1 0.02377,0.22688 27.78125,27.78125 0 0 1 0.02222,0.22685 27.78125,27.78125 0 0 1 0.02067,0.22738 27.78125,27.78125 0 0 1 0.0186,0.22686 27.78125,27.78125 0 0 1 0.01654,0.22738 27.78125,27.78125 0 0 1 0.01499,0.22736 27.78125,27.78125 0 0 1 0.01292,0.22791 27.78125,27.78125 0 0 1 0.01085,0.22788 27.78125,27.78125 0 0 1 0.0093,0.22739 27.78125,27.78125 0 0 1 0.0072,0.22788 27.78125,27.78125 0 0 1 0.0052,0.22789 27.78125,27.78125 0 0 1 0.0036,0.22788 27.78125,27.78125 0 0 1 0.0021,0.22842 27.78125,27.78125 0 0 1 0,0.0941 27.78125,27.78125 0 0 1 0.001,-0.22789 27.78125,27.78125 0 0 1 0.0026,-0.22791 27.78125,27.78125 0 0 1 0.0047,-0.22789 27.78125,27.78125 0 0 1 0.0067,-0.22788 27.78125,27.78125 0 0 1 0.0083,-0.22789 27.78125,27.78125 0 0 1 0.01033,-0.22791 27.78125,27.78125 0 0 1 0.0124,-0.22788 27.78125,27.78125 0 0 1 0.01395,-0.22739 27.78125,27.78125 0 0 1 0.01602,-0.22735 27.78125,27.78125 0 0 1 0.01757,-0.22739 27.78125,27.78125 0 0 1 0.01964,-0.22685 27.78125,27.78125 0 0 1 0.02119,-0.22738 27.78125,27.78125 0 0 1 0.02377,-0.22635 27.78125,27.78125 0 0 1 0.02481,-0.22686 27.78125,27.78125 0 0 1 0.02739,-0.2263501 27.78125,27.78125 0 0 1 0.02894,-0.22632 27.78125,27.78125 0 0 1 0.03049,-0.22585 27.78125,27.78125 0 0 1 0.03256,-0.22529 27.78125,27.78125 0 0 1 0.03462,-0.22532 27.78125,27.78125 0 0 1 0.03617,-0.2253 27.78125,27.78125 0 0 1 0.03824,-0.22481 27.78125,27.78125 0 0 1 0.04031,-0.22426 27.78125,27.78125 0 0 1 0.04186,-0.22429 27.78125,27.78125 0 0 1 0.04341,-0.22376 27.78125,27.78125 0 0 1 0.04547,-0.22323 27.78125,27.78125 0 0 1 0.04754,-0.22325 27.78125,27.78125 0 0 1 0.04909,-0.2222 27.78125,27.78125 0 0 1 0.05116,-0.22222 27.78125,27.78125 0 0 1 0.05271,-0.2222 27.78125,27.78125 0 0 1 0.05478,-0.22117 27.78125,27.78125 0 0 1 0.05633,-0.22066 27.78125,27.78125 0 0 1 0.05839,-0.22066 27.78125,27.78125 0 0 1 0.05994,-0.21963 27.78125,27.78125 0 0 1 0.06201,-0.21963 27.78125,27.78125 0 0 1 0.06356,-0.2191 27.78125,27.78125 0 0 1 0.06563,-0.21807 27.78125,27.78125 0 0 1 0.06718,-0.21807 27.78125,27.78125 0 0 1 0.06925,-0.21704 27.78125,27.78125 0 0 1 0.0708,-0.21654 27.78125,27.78125 0 0 1 0.07235,-0.21653 27.78125,27.78125 0 0 1 0.07441,-0.21548 27.78125,27.78125 0 0 1 0.07648,-0.21497 27.78125,27.78125 0 0 1 0.07751,-0.21394 27.78125,27.78125 0 0 1 0.0801,-0.21395 27.78125,27.78125 0 0 1 0.08113,-0.21291 27.78125,27.78125 0 0 1 0.0832,-0.21187 27.78125,27.78125 0 0 1 0.08475,-0.21188 27.78125,27.78125 0 0 1 0.08682,-0.21082 27.78125,27.78125 0 0 1 0.08837,-0.21035 27.78125,27.78125 0 0 1 0.08992,-0.20928 27.78125,27.78125 0 0 1 0.09199,-0.20876 27.78125,27.78125 0 0 1 0.09353,-0.20775 27.78125,27.78125 0 0 1 0.09508,-0.20722 27.78125,27.78125 0 0 1 0.09715,-0.20619 27.78125,27.78125 0 0 1 0.0987,-0.20566 27.78125,27.78125 0 0 1 0.100253,-0.20466 27.78125,27.78125 0 0 1 0.101804,-0.20412 27.78125,27.78125 0 0 1 0.103352,-0.20307 27.78125,27.78125 0 0 1 0.10542,-0.20206 27.78125,27.78125 0 0 1 0.106971,-0.20154 27.78125,27.78125 0 0 1 0.108519,-0.2005 27.78125,27.78125 0 0 1 0.110588,-0.19947 27.78125,27.78125 0 0 1 0.111623,-0.19843 27.78125,27.78125 0 0 1 0.113686,-0.19794 27.78125,27.78125 0 0 1 0.114723,-0.19687 27.78125,27.78125 0 0 1 0.116787,-0.19535 27.78125,27.78125 0 0 1 0.11834,-0.19534 27.78125,27.78125 0 0 1 0.119888,-0.19378 27.78125,27.78125 0 0 1 0.121957,-0.19275 27.78125,27.78125 0 0 1 0.122992,-0.19172 27.78125,27.78125 0 0 1 0.124539,-0.19121 27.78125,27.78125 0 0 1 0.12609,-0.18965 27.78125,27.78125 0 0 1 0.12764,-0.18913 27.78125,27.78125 0 0 1 0.12971,-0.18759 27.78125,27.78125 0 0 1 0.130741,-0.18655 27.78125,27.78125 0 0 1 0.132292,-0.18553 27.78125,27.78125 0 0 1 0.133842,-0.18447 27.78125,27.78125 0 0 1 0.03772,-0.0512 37.041667,37.041667 0 0 0 -5.40173,-8.03981 z m 0,24.5003101 a 27.78125,27.78125 0 0 1 -0.001,0.22788 27.78125,27.78125 0 0 1 -0.0026,0.22792 27.78125,27.78125 0 0 1 -0.0047,0.22788 27.78125,27.78125 0 0 1 -0.0067,0.22789 27.78125,27.78125 0 0 1 -0.0083,0.22788 27.78125,27.78125 0 0 1 -0.01033,0.22791 27.78125,27.78125 0 0 1 -0.0124,0.227359 27.78125,27.78125 0 0 1 -0.01395,0.227911 27.78125,27.78125 0 0 1 -0.01602,0.22736 27.78125,27.78125 0 0 1 -0.01757,0.22738 27.78125,27.78125 0 0 1 -0.01964,0.226859 27.78125,27.78125 0 0 1 -0.02119,0.22688 27.78125,27.78125 0 0 1 -0.02377,0.226851 27.78125,27.78125 0 0 1 -0.02481,0.226849 27.78125,27.78125 0 0 1 -0.02739,0.226362 27.78125,27.78125 0 0 1 -0.02894,0.225819 27.78125,27.78125 0 0 1 -0.03049,0.226351 27.78125,27.78125 0 0 1 -0.03256,0.225287 27.78125,27.78125 0 0 1 -0.03462,0.225322 27.78125,27.78125 0 0 1 -0.03617,0.22529 27.78125,27.78125 0 0 1 -0.03824,0.224819 27.78125,27.78125 0 0 1 -0.04031,0.224261 27.78125,27.78125 0 0 1 -0.04186,0.22429 27.78125,27.78125 0 0 1 -0.04341,0.223761 27.78125,27.78125 0 0 1 -0.04547,0.223218 27.78125,27.78125 0 0 1 -0.04754,0.22326097 27.78125,27.78125 0 0 1 -0.04909,0.2222 27.78125,27.78125 0 0 1 -0.05116,0.22222 27.78125,27.78125 0 0 1 -0.05271,0.22169 27.78125,27.78125 0 0 1 -0.05478,0.22167 27.78125,27.78125 0 0 1 -0.05633,0.220671 27.78125,27.78125 0 0 1 -0.05839,0.220659 27.78125,27.78125 0 0 1 -0.05994,0.219628 27.78125,27.78125 0 0 1 -0.06201,0.219631 27.78125,27.78125 0 0 1 -0.06356,0.21910103 27.78125,27.78125 0 0 1 -0.06563,0.21807 27.78125,27.78125 0 0 1 -0.06718,0.21807 27.78125,27.78125 0 0 1 -0.06925,0.21704 27.78125,27.78125 0 0 1 -0.0708,0.21653 27.78125,27.78125 0 0 1 -0.07235,0.21654 27.78125,27.78125 0 0 1 -0.07441,0.215469 27.78125,27.78125 0 0 1 -0.07648,0.214482 27.78125,27.78125 0 0 1 -0.07751,0.214439 27.78125,27.78125 0 0 1 -0.0801,0.213439 27.78125,27.78125 0 0 1 -0.08113,0.213411 27.78125,27.78125 0 0 1 -0.0832,0.211881 27.78125,27.78125 0 0 1 -0.08475,0.211878 27.78125,27.78125 0 0 1 -0.08682,0.21082 27.78125,27.78125 0 0 1 -0.08837,0.209809 27.78125,27.78125 0 0 1 -0.08992,0.20982 27.78125,27.78125 0 0 1 -0.09198,0.208751 27.78125,27.78125 0 0 1 -0.09353,0.207762 27.78125,27.78125 0 0 1 -0.09508,0.207219 27.78125,27.78125 0 0 1 -0.09715,0.206189 27.78125,27.78125 0 0 1 -0.0987,0.205661 27.78125,27.78125 0 0 1 -0.100252,0.20465 27.78125,27.78125 0 0 1 -0.101803,0.204129 27.78125,27.78125 0 0 1 -0.103352,0.20307 27.78125,27.78125 0 0 1 -0.10542,0.20206 27.78125,27.78125 0 0 1 -0.10697,0.20153 27.78125,27.78125 0 0 1 -0.108521,0.200001 27.78125,27.78125 0 0 1 -0.110587,0.19997 27.78125,27.78125 0 0 1 -0.111622,0.19844 27.78125,27.78125 0 0 1 -0.113688,0.197929 27.78125,27.78125 0 0 1 -0.114722,0.196379 27.78125,27.78125 0 0 1 -0.116788,0.195842 27.78125,27.78125 0 0 1 -0.118339,0.194818 27.78125,27.78125 0 0 1 -0.119889,0.19431 27.78125,27.78125 0 0 1 -0.121957,0.192741 27.78125,27.78125 0 0 1 -0.12299,0.19172 27.78125,27.78125 0 0 1 -0.12454,0.19122 27.78125,27.78125 0 0 1 -0.12609,0.18965 27.78125,27.78125 0 0 1 -0.127641,0.188619 27.78125,27.78125 0 0 1 -0.129708,0.188093 27.78125,27.78125 0 0 1 -0.130742,0.186557 27.78125,27.78125 0 0 1 -0.132291,0.185531 27.78125,27.78125 0 0 1 -0.133842,0.18446 27.78125,27.78125 0 0 1 -0.03772,0.051199 37.041667,37.041667 0 0 0 0.02687,0.0548 37.041667,37.041667 0 0 0 0.117822,0.23514 37.041667,37.041667 0 0 0 0.119889,0.2341009 37.041667,37.041667 0 0 0 0.121957,0.23358 37.041667,37.041667 0 0 0 0.12299,0.232539 37.041667,37.041667 0 0 0 0.125057,0.232011 37.041667,37.041667 0 0 0 0.12609,0.23101 37.041667,37.041667 0 0 0 0.128158,0.229949 37.041667,37.041667 0 0 0 0.129708,0.228939 37.041667,37.041667 0 0 0 0.131775,0.227891 37.041667,37.041667 0 0 0 0.132808,0.22738 37.041667,37.041667 0 0 0 0.134358,0.22633 37.041667,37.041667 0 0 0 0.136426,0.225311 37.041667,37.041667 0 0 0 0.137977,0.224269 37.041667,37.041667 0 0 0 0.139526,0.22325 37.041667,37.041667 0 0 0 0.14056,0.2222 37.041667,37.041667 0 0 0 0.142627,0.221189 37.041667,37.041667 0 0 0 0.144177,0.220131 37.041667,37.041667 0 0 0 0.145727,0.21963 37.041667,37.041667 0 0 0 0.147278,0.21807 37.041667,37.041667 0 0 0 0.148828,0.21704 37.041667,37.041667 0 0 0 0.150379,0.216011 37.041667,37.041667 0 0 0 0.151929,0.215498 37.041667,37.041667 0 0 0 0.153479,0.213942 37.041667,37.041667 0 0 0 0.154512,0.212379 37.041667,37.041667 0 0 0 0.15658,0.211881 37.041667,37.041667 0 0 0 0.158129,0.210849 37.041667,37.041667 0 0 0 0.159164,0.20928 37.041667,37.041667 0 0 0 0.160714,0.208261 37.041667,37.041667 0 0 0 0.162781,0.207219 37.041667,37.041667 0 0 0 0.163814,0.20619 37.041667,37.041667 0 0 0 0.165365,0.205161 37.041667,37.041667 0 0 0 0.166399,0.203589 37.041667,37.041667 0 0 0 0.168463,0.20257 37.041667,37.041667 0 0 0 0.1695,0.20103 37.041667,37.041667 0 0 0 0.171047,0.199999 37.041667,37.041667 0 0 0 0.172601,0.19894 37.041667,37.041667 0 0 0 0.116271,0.132292 37.041667,37.041667 0 0 0 5.401739,-8.0398199 27.78125,27.78125 0 0 1 -0.116274,-0.15917 27.78125,27.78125 0 0 1 -0.133323,-0.185 27.78125,27.78125 0 0 1 -0.13126,-0.18655 27.78125,27.78125 0 0 1 -0.129707,-0.187059 27.78125,27.78125 0 0 1 -0.128675,-0.188629 27.78125,27.78125 0 0 1 -0.126608,-0.189122 27.78125,27.78125 0 0 1 -0.125571,-0.19068 27.78125,27.78125 0 0 1 -0.123508,-0.191219 27.78125,27.78125 0 0 1 -0.122473,-0.192749 27.78125,27.78125 0 0 1 -0.120406,-0.193281 27.78125,27.78125 0 0 1 -0.118856,-0.19481 27.78125,27.78125 0 0 1 -0.117822,-0.195339 27.78125,27.78125 0 0 1 -0.115755,-0.196372 27.78125,27.78125 0 0 1 -0.114205,-0.197411 27.78125,27.78125 0 0 1 -0.112138,-0.197908 27.78125,27.78125 0 0 1 -0.111104,-0.199472 27.78125,27.78125 0 0 1 -0.109038,-0.199998 27.78125,27.78125 0 0 1 -0.108003,-0.201002 27.78125,27.78125 0 0 1 -0.105939,-0.201559 27.78125,27.78125 0 0 1 -0.104386,-0.203071 27.78125,27.78125 0 0 1 -0.102319,-0.203618 27.78125,27.78125 0 0 1 -0.101286,-0.204131 27.78125,27.78125 0 0 1 -0.09922,-0.205129 27.78125,27.78125 0 0 1 -0.09767,-0.20619 27.78125,27.78125 0 0 1 -0.0956,-0.206721 27.78125,27.78125 0 0 1 -0.09457,-0.207748 27.78125,27.78125 0 0 1 -0.0925,-0.208251 27.78125,27.78125 0 0 1 -0.09043,-0.209291 27.78125,27.78125 0 0 1 -0.0894,-0.20978 27.78125,27.78125 0 0 1 -0.08733,-0.210349 27.78125,27.78125 0 0 1 -0.08527,-0.211349 27.78125,27.78125 0 0 1 -0.08423,-0.212381 27.78125,27.78125 0 0 1 -0.08217,-0.212411 27.78125,27.78125 0 0 1 -0.0801,-0.21341 27.78125,27.78125 0 0 1 -0.07855,-0.213939 27.78125,27.78125 0 0 1 -0.077,-0.21445 27.78125,27.78125 0 0 1 -0.07545,-0.215501 27.78125,27.78125 0 0 1 -0.07286,-0.216 27.78125,27.78125 0 0 1 -0.07183,-0.216541 27.78125,27.78125 0 0 1 -0.06976,-0.216508 27.78125,27.78125 0 0 1 -0.06821,-0.21807 27.78125,27.78125 0 0 1 -0.06615,-0.218091 27.78125,27.78125 0 0 1 -0.06408,-0.21858003 27.78125,27.78125 0 0 1 -0.06304,-0.21912 27.78125,27.78125 0 0 1 -0.06046,-0.219609 27.78125,27.78125 0 0 1 -0.05943,-0.22016 27.78125,27.78125 0 0 1 -0.05684,-0.22066 27.78125,27.78125 0 0 1 -0.05581,-0.22117 27.78125,27.78125 0 0 1 -0.05323,-0.221689 27.78125,27.78125 0 0 1 -0.05168,-0.2222 27.78125,27.78125 0 0 1 -0.05013,-0.222221 27.78125,27.78125 0 0 1 -0.04806,-0.22323197 27.78125,27.78125 0 0 1 -0.04651,-0.223258 27.78125,27.78125 0 0 1 -0.04444,-0.223221 27.78125,27.78125 0 0 1 -0.04237,-0.22429 27.78125,27.78125 0 0 1 -0.04082,-0.224261 27.78125,27.78125 0 0 1 -0.03876,-0.22429 27.78125,27.78125 0 0 1 -0.03721,-0.225319 27.78125,27.78125 0 0 1 -0.03514,-0.22529 27.78125,27.78125 0 0 1 -0.03359,-0.225319 27.78125,27.78125 0 0 1 -0.03152,-0.225819 27.78125,27.78125 0 0 1 -0.02997,-0.225822 27.78125,27.78125 0 0 1 -0.02739,-0.226359 27.78125,27.78125 0 0 1 -0.02635,-0.226319 27.78125,27.78125 0 0 1 -0.02377,-0.22688 27.78125,27.78125 0 0 1 -0.02222,-0.226852 27.78125,27.78125 0 0 1 -0.02067,-0.22739 27.78125,27.78125 0 0 1 -0.0186,-0.226849 27.78125,27.78125 0 0 1 -0.01654,-0.22738 27.78125,27.78125 0 0 1 -0.01499,-0.22789 27.78125,27.78125 0 0 1 -0.01292,-0.22738 27.78125,27.78125 0 0 1 -0.01085,-0.22789 27.78125,27.78125 0 0 1 -0.0093,-0.22738 27.78125,27.78125 0 0 1 -0.0072,-0.22789 27.78125,27.78125 0 0 1 -0.0052,-0.22788 27.78125,27.78125 0 0 1 -0.0036,-0.22842 27.78125,27.78125 0 0 1 -0.0021,-0.22788 27.78125,27.78125 0 0 1 0,-0.0941 z"
       inkscape:export-xdpi="96"
       inkscape:export-ydpi="96" />
  </g>
</svg>
