<?xml version="1.0" encoding="UTF-8" standalone="no"?>
<svg
   xmlns:dc="http://purl.org/dc/elements/1.1/"
   xmlns:cc="http://creativecommons.org/ns#"
   xmlns:rdf="http://www.w3.org/1999/02/22-rdf-syntax-ns#"
   xmlns:svg="http://www.w3.org/2000/svg"
   xmlns="http://www.w3.org/2000/svg"
   id="svg850"
   version="1.1"
   viewBox="0 0 210 297"
   height="297mm"
   width="210mm">
  <defs
     id="defs844" />
  <metadata
     id="metadata847">
    <rdf:RDF>
      <cc:Work
         rdf:about="">
        <dc:format>image/svg+xml</dc:format>
        <dc:type
           rdf:resource="http://purl.org/dc/dcmitype/StillImage" />
        <dc:title></dc:title>
      </cc:Work>
    </rdf:RDF>
  </metadata>
  <g
     id="layer1">
    <path
       id="path1626"
       style="fill:#ffffff;fill-opacity:1;stroke:none;stroke-width:0.264583;stroke-linecap:square;stroke-linejoin:round;stroke-miterlimit:4;stroke-dasharray:none;stroke-opacity:1;paint-order:fill markers stroke"
       d="m 115.64511,110.19855 a 27.78125,27.78125 0 0 0 0.0377,-0.0512 27.78125,27.78125 0 0 0 0.13385,-0.18447 27.78125,27.78125 0 0 0 0.13229,-0.18553 27.78125,27.78125 0 0 0 0.13074,-0.18656 27.78125,27.78125 0 0 0 0.12971,-0.18809 27.78125,27.78125 0 0 0 0.12764,-0.18862 27.78125,27.78125 0 0 0 0.12609,-0.18965 27.78125,27.78125 0 0 0 0.12454,-0.19122 27.78125,27.78125 0 0 0 0.12299,-0.19172 27.78125,27.78125 0 0 0 0.12196,-0.19274 27.78125,27.78125 0 0 0 0.11988,-0.19431 27.78125,27.78125 0 0 0 0.11834,-0.19482 27.78125,27.78125 0 0 0 0.11679,-0.19583 27.78125,27.78125 0 0 0 0.11472,-0.19639 27.78125,27.78125 0 0 0 0.11369,-0.19793 27.78125,27.78125 0 0 0 0.11162,-0.19844 27.78125,27.78125 0 0 0 0.11059,-0.19997 27.78125,27.78125 0 0 0 0.10852,-0.19999 27.78125,27.78125 0 0 0 0.10697,-0.20153 27.78125,27.78125 0 0 0 0.10542,-0.20207 27.78125,27.78125 0 0 0 0.10335,-0.20306 27.78125,27.78125 0 0 0 0.10181,-0.20414 27.78125,27.78125 0 0 0 0.10025,-0.20466 27.78125,27.78125 0 0 0 0.0987,-0.20565 27.78125,27.78125 0 0 0 0.0971,-0.20619 27.78125,27.78125 0 0 0 0.0951,-0.20723 27.78125,27.78125 0 0 0 0.0935,-0.20775 27.78125,27.78125 0 0 0 0.092,-0.20876 27.78125,27.78125 0 0 0 0.0899,-0.2098 27.78125,27.78125 0 0 0 0.0884,-0.20981 27.78125,27.78125 0 0 0 0.0868,-0.21082 27.78125,27.78125 0 0 0 0.0847,-0.21188 27.78125,27.78125 0 0 0 0.0832,-0.21189 27.78125,27.78125 0 0 0 0.0811,-0.2134 27.78125,27.78125 0 0 0 0.0801,-0.21344 27.78125,27.78125 0 0 0 0.0775,-0.21445 27.78125,27.78125 0 0 0 0.0765,-0.21447 27.78125,27.78125 0 0 0 0.0744,-0.21548 27.78125,27.78125 0 0 0 0.0724,-0.21653 27.78125,27.78125 0 0 0 0.0708,-0.21654 27.78125,27.78125 0 0 0 0.0693,-0.21703 27.78125,27.78125 0 0 0 0.0672,-0.21807 27.78125,27.78125 0 0 0 0.0656,-0.21807 27.78125,27.78125 0 0 0 0.0636,-0.2191 27.78125,27.78125 0 0 0 0.062,-0.21963 27.78125,27.78125 0 0 0 0.0599,-0.21964 27.78125,27.78125 0 0 0 0.0584,-0.22066 27.78125,27.78125 0 0 0 0.0563,-0.22066 27.78125,27.78125 0 0 0 0.0548,-0.22167 27.78125,27.78125 0 0 0 0.0527,-0.22169 27.78125,27.78125 0 0 0 0.0512,-0.222234 27.78125,27.78125 0 0 0 0.0491,-0.22219 27.78125,27.78125 0 0 0 0.0475,-0.22326 27.78125,27.78125 0 0 0 0.0455,-0.22323 27.78125,27.78125 0 0 0 0.0434,-0.22376 27.78125,27.78125 0 0 0 0.0419,-0.22428 27.78125,27.78125 0 0 0 0.0403,-0.22426 27.78125,27.78125 0 0 0 0.0382,-0.22482 27.78125,27.78125 0 0 0 0.0362,-0.22529 27.78125,27.78125 0 0 0 0.0346,-0.22532 27.78125,27.78125 0 0 0 0.0326,-0.2253 27.78125,27.78125 0 0 0 0.0305,-0.22635 27.78125,27.78125 0 0 0 0.0289,-0.22582 27.78125,27.78125 0 0 0 0.0274,-0.22636 27.78125,27.78125 0 0 0 0.0248,-0.22685 27.78125,27.78125 0 0 0 0.0238,-0.22686 27.78125,27.78125 0 0 0 0.0212,-0.22688 27.78125,27.78125 0 0 0 0.0196,-0.22685 27.78125,27.78125 0 0 0 0.0176,-0.22737 27.78125,27.78125 0 0 0 0.016,-0.22736 27.78125,27.78125 0 0 0 0.0139,-0.22791 27.78125,27.78125 0 0 0 0.0124,-0.22736 27.78125,27.78125 0 0 0 0.0103,-0.22791 27.78125,27.78125 0 0 0 0.008,-0.22789 27.78125,27.78125 0 0 0 0.007,-0.22788 27.78125,27.78125 0 0 0 0.005,-0.2279 27.78125,27.78125 0 0 0 0.003,-0.22791 27.78125,27.78125 0 0 0 0.001,-0.22789 27.78125,27.78125 0 0 0 0,-0.0941 27.78125,27.78125 0 0 0 -0.002,-0.22842 27.78125,27.78125 0 0 0 -0.004,-0.22788 27.78125,27.78125 0 0 0 -0.005,-0.22789 27.78125,27.78125 0 0 0 -0.007,-0.22789 27.78125,27.78125 0 0 0 -0.009,-0.22738 27.78125,27.78125 0 0 0 -0.0109,-0.22788 27.78125,27.78125 0 0 0 -0.0129,-0.22792 27.78125,27.78125 0 0 0 -0.015,-0.22735 27.78125,27.78125 0 0 0 -0.0165,-0.22739 27.78125,27.78125 0 0 0 -0.0186,-0.22685 27.78125,27.78125 0 0 0 -0.0207,-0.22738 27.78125,27.78125 0 0 0 -0.0222,-0.22686 27.78125,27.78125 0 0 0 -0.0238,-0.22688 27.78125,27.78125 0 0 0 -0.0263,-0.22632 27.78125,27.78125 0 0 0 -0.0274,-0.22635 27.78125,27.78125 0 0 0 -0.03,-0.22582 27.78125,27.78125 0 0 0 -0.0315,-0.22583 27.78125,27.78125 0 0 0 -0.0336,-0.22582 27.78125,27.78125 0 0 0 -0.0351,-0.22479 27.78125,27.78125 0 0 0 -0.0372,-0.22532 27.78125,27.78125 0 0 0 -0.0388,-0.22428 27.78125,27.78125 0 0 0 -0.0408,-0.22427 27.78125,27.78125 0 0 0 -0.0424,-0.22428 27.78125,27.78125 0 0 0 -0.0444,-0.22376 27.78125,27.78125 0 0 0 -0.0465,-0.22323 27.78125,27.78125 0 0 0 -0.0481,-0.22273 27.78125,27.78125 0 0 0 -0.0501,-0.22222 27.78125,27.78125 0 0 0 -0.0517,-0.2222 27.78125,27.78125 0 0 0 -0.0532,-0.22169 27.78125,27.78125 0 0 0 -0.0558,-0.22117 27.78125,27.78125 0 0 0 -0.0568,-0.220661 27.78125,27.78125 0 0 0 -0.0594,-0.220159 27.78125,27.78125 0 0 0 -0.0605,-0.2196 27.78125,27.78125 0 0 0 -0.063,-0.21913 27.78125,27.78125 0 0 0 -0.0641,-0.21857 27.78125,27.78125 0 0 0 -0.0661,-0.2186 27.78125,27.78125 0 0 0 -0.0682,-0.21757 27.78125,27.78125 0 0 0 -0.0698,-0.21704 27.78125,27.78125 0 0 0 -0.0718,-0.216 27.78125,27.78125 0 0 0 -0.0729,-0.21601 27.78125,27.78125 0 0 0 -0.0754,-0.2155 27.78125,27.78125 0 0 0 -0.077,-0.21445 27.78125,27.78125 0 0 0 -0.0786,-0.21394 27.78125,27.78125 0 0 0 -0.0801,-0.21341 27.78125,27.78125 0 0 0 -0.0822,-0.21291 27.78125,27.78125 0 0 0 -0.0842,-0.21188 27.78125,27.78125 0 0 0 -0.0853,-0.21135 27.78125,27.78125 0 0 0 -0.0873,-0.21034 27.78125,27.78125 0 0 0 -0.0894,-0.20979 27.78125,27.78125 0 0 0 -0.0904,-0.20929 27.78125,27.78125 0 0 0 -0.0925,-0.20825 27.78125,27.78125 0 0 0 -0.0946,-0.20775 27.78125,27.78125 0 0 0 -0.0956,-0.20672 27.78125,27.78125 0 0 0 -0.0977,-0.20619 27.78125,27.78125 0 0 0 -0.0992,-0.20513 27.78125,27.78125 0 0 0 -0.10129,-0.20413 27.78125,27.78125 0 0 0 -0.10232,-0.20362 27.78125,27.78125 0 0 0 -0.10438,-0.20307 27.78125,27.78125 0 0 0 -0.10594,-0.20156 27.78125,27.78125 0 0 0 -0.108,-0.201 27.78125,27.78125 0 0 0 -0.10904,-0.2 27.78125,27.78125 0 0 0 -0.1111,-0.19947 27.78125,27.78125 0 0 0 -0.11214,-0.19791 27.78125,27.78125 0 0 0 -0.11421,-0.1974 27.78125,27.78125 0 0 0 -0.11575,-0.19638 27.78125,27.78125 0 0 0 -0.11783,-0.19584 27.78125,27.78125 0 0 0 -0.11885,-0.19431 27.78125,27.78125 0 0 0 -0.12041,-0.19328 27.78125,27.78125 0 0 0 -0.12247,-0.19275 27.78125,27.78125 0 0 0 -0.12351,-0.19121 27.78125,27.78125 0 0 0 -0.12557,-0.19069 27.78125,27.78125 0 0 0 -0.12661,-0.18912 27.78125,27.78125 0 0 0 -0.12867,-0.18862 27.78125,27.78125 0 0 0 -0.12971,-0.18706 27.78125,27.78125 0 0 0 -0.13126,-0.18656 27.78125,27.78125 0 0 0 -0.13332,-0.185 27.78125,27.78125 0 0 0 -0.11628,-0.15917 37.041667,37.041667 0 0 0 -0.0925,0.18759 37.041667,37.041667 0 0 0 -0.11523,0.23667 37.041667,37.041667 0 0 0 -0.11266,0.23773 37.041667,37.041667 0 0 0 -0.11162,0.23873 37.041667,37.041667 0 0 0 -0.10955,0.23926 37.041667,37.041667 0 0 0 -0.10852,0.23979 37.041667,37.041667 0 0 0 -0.10594,0.2408 37.041667,37.041667 0 0 0 -0.1049,0.24186 37.041667,37.041667 0 0 0 -0.10284,0.24236 37.041667,37.041667 0 0 0 -0.10129,0.24288 37.041667,37.041667 0 0 0 -0.0992,0.2439 37.041667,37.041667 0 0 0 -0.0977,0.24444 37.041667,37.041667 0 0 0 -0.0961,0.24493 37.041667,37.041667 0 0 0 -0.0941,0.24598 37.041667,37.041667 0 0 0 -0.0925,0.24651 37.041667,37.041667 0 0 0 -0.0904,0.24702 37.041667,37.041667 0 0 0 -0.0894,0.24752 37.041667,37.041667 0 0 0 -0.0868,0.24857 37.041667,37.041667 0 0 0 -0.0858,0.24908 37.041667,37.041667 0 0 0 -0.0832,0.24958 37.041667,37.041667 0 0 0 -0.0822,0.25011 37.041667,37.041667 0 0 0 -0.0801,0.25064 37.041667,37.041667 0 0 0 -0.078,0.25168 37.041667,37.041667 0 0 0 -0.077,0.25164 37.041667,37.041667 0 0 0 -0.0744,0.2522 37.041667,37.041667 0 0 0 -0.0729,0.25321 37.041667,37.041667 0 0 0 -0.0713,0.2532 37.041667,37.041667 0 0 0 -0.0692,0.25427 37.041667,37.041667 0 0 0 -0.0677,0.25424 37.041667,37.041667 0 0 0 -0.0656,0.25529 37.041667,37.041667 0 0 0 -0.0641,0.25527 37.041667,37.041667 0 0 0 -0.062,0.2558 37.041667,37.041667 0 0 0 -0.0599,0.256299 37.041667,37.041667 0 0 0 -0.0584,0.256331 37.041667,37.041667 0 0 0 -0.0568,0.25736 37.041667,37.041667 0 0 0 -0.0548,0.25734 37.041667,37.041667 0 0 0 -0.0527,0.25786 37.041667,37.041667 0 0 0 -0.0512,0.25839 37.041667,37.041667 0 0 0 -0.0496,0.25837 37.041667,37.041667 0 0 0 -0.0475,0.258919 37.041667,37.041667 0 0 0 -0.0455,0.259401 37.041667,37.041667 0 0 0 -0.0439,0.25942 37.041667,37.041667 0 0 0 -0.0419,0.25993 37.041667,37.041667 0 0 0 -0.0398,0.26045 37.041667,37.041667 0 0 0 -0.0382,0.26046 37.041667,37.041667 0 0 0 -0.0367,0.26043 37.041667,37.041667 0 0 0 -0.0341,0.26098 37.041667,37.041667 0 0 0 -0.0326,0.26149 37.041667,37.041667 0 0 0 -0.031,0.26146 37.041667,37.041667 0 0 0 -0.0289,0.26149 37.041667,37.041667 0 0 0 -0.0269,0.26202 37.041667,37.041667 0 0 0 -0.0253,0.26199 37.041667,37.041667 0 0 0 -0.0233,0.26199 37.041667,37.041667 0 0 0 -0.0217,0.26252 37.041667,37.041667 0 0 0 -0.0196,0.26252 37.041667,37.041667 0 0 0 -0.0176,0.26252 37.041667,37.041667 0 0 0 -0.016,0.26302 37.041667,37.041667 0 0 0 -0.014,0.26252 37.041667,37.041667 0 0 0 -0.0124,0.26302 37.041667,37.041667 0 0 0 -0.0103,0.26305 37.041667,37.041667 0 0 0 -0.008,0.26355 37.041667,37.041667 0 0 0 -0.007,0.26302 37.041667,37.041667 0 0 0 -0.005,0.26305 37.041667,37.041667 0 0 0 -0.003,0.26355 37.041667,37.041667 0 0 0 -10e-4,0.26302 37.041667,37.041667 0 0 0 0,0.007 37.041667,37.041667 0 0 0 10e-4,0.26302 37.041667,37.041667 0 0 0 0.003,0.26305 37.041667,37.041667 0 0 0 0.005,0.26355 37.041667,37.041667 0 0 0 0.006,0.26302 37.041667,37.041667 0 0 0 0.009,0.26302 37.041667,37.041667 0 0 0 0.0103,0.26305 37.041667,37.041667 0 0 0 0.0119,0.26302 37.041667,37.041667 0 0 0 0.0145,0.26305 37.041667,37.041667 0 0 0 0.0155,0.26252 37.041667,37.041667 0 0 0 0.0181,0.26302 37.041667,37.041667 0 0 0 0.0196,0.26252 37.041667,37.041667 0 0 0 0.0217,0.26199 37.041667,37.041667 0 0 0 0.0233,0.26252 37.041667,37.041667 0 0 0 0.0253,0.26199 37.041667,37.041667 0 0 0 0.0269,0.26149 37.041667,37.041667 0 0 0 0.0289,0.26202 37.041667,37.041667 0 0 0 0.031,0.26146 37.041667,37.041667 0 0 0 0.0326,0.26098 37.041667,37.041667 0 0 0 0.0346,0.26096 37.041667,37.041667 0 0 0 0.0367,0.26096 37.041667,37.041667 0 0 0 0.0382,0.26046 37.041667,37.041667 0 0 0 0.0398,0.25992 37.041667,37.041667 0 0 0 0.0424,0.25993 37.041667,37.041667 0 0 0 0.0434,0.259434 37.041667,37.041667 0 0 0 0.046,0.25942 37.041667,37.041667 0 0 0 0.0475,0.25889 37.041667,37.041667 0 0 0 0.0491,0.2589 37.041667,37.041667 0 0 0 0.0512,0.25786 37.041667,37.041667 0 0 0 0.0532,0.25786 37.041667,37.041667 0 0 0 0.0548,0.25787 37.041667,37.041667 0 0 0 0.0563,0.25683 37.041667,37.041667 0 0 0 0.0589,0.25683 37.041667,37.041667 0 0 0 0.0599,0.25633 37.041667,37.041667 0 0 0 0.062,0.2558 37.041667,37.041667 0 0 0 0.0641,0.25527 37.041667,37.041667 0 0 0 0.0656,0.25476 37.041667,37.041667 0 0 0 0.0677,0.25427 37.041667,37.041667 0 0 0 0.0692,0.25424 37.041667,37.041667 0 0 0 0.0713,0.25319 37.041667,37.041667 0 0 0 0.0729,0.25324 37.041667,37.041667 0 0 0 0.0749,0.25217 37.041667,37.041667 0 0 0 0.0765,0.25168 37.041667,37.041667 0 0 0 0.0786,0.25164 37.041667,37.041667 0 0 0 0.0801,0.25064 37.041667,37.041667 0 0 0 0.0822,0.25011 37.041667,37.041667 0 0 0 0.0832,0.24961 37.041667,37.041667 0 0 0 0.0858,0.24907 37.041667,37.041667 0 0 0 0.0873,0.24855 37.041667,37.041667 0 0 0 0.0889,0.24755 37.041667,37.041667 0 0 0 0.0904,0.24701 37.041667,37.041667 0 0 0 0.093,0.24649 37.041667,37.041667 0 0 0 0.094,0.24599 37.041667,37.041667 0 0 0 0.0961,0.24494 37.041667,37.041667 0 0 0 0.0977,0.24443 37.041667,37.041667 0 0 0 0.0992,0.24392 37.041667,37.041667 0 0 0 0.10129,0.24286 37.041667,37.041667 0 0 0 0.10284,0.24238 37.041667,37.041667 0 0 0 0.1049,0.24133 37.041667,37.041667 0 0 0 0.10645,0.24079 37.041667,37.041667 0 0 0 0.10801,0.2403 37.041667,37.041667 0 0 0 0.10955,0.23926 37.041667,37.041667 0 0 0 0.11162,0.23823 37.041667,37.041667 0 0 0 0.11317,0.23773 37.041667,37.041667 0 0 0 0.11472,0.23717 37.041667,37.041667 0 0 0 0.0899,0.1814 z" />
  </g>
</svg>
