<?xml version="1.0" encoding="UTF-8" standalone="no"?>
<svg
   xmlns:dc="http://purl.org/dc/elements/1.1/"
   xmlns:cc="http://creativecommons.org/ns#"
   xmlns:rdf="http://www.w3.org/1999/02/22-rdf-syntax-ns#"
   xmlns:svg="http://www.w3.org/2000/svg"
   xmlns="http://www.w3.org/2000/svg"
   xmlns:sodipodi="http://sodipodi.sourceforge.net/DTD/sodipodi-0.dtd"
   xmlns:inkscape="http://www.inkscape.org/namespaces/inkscape"
   sodipodi:docname="esquinas.svg"
   inkscape:version="1.0 (4035a4fb49, 2020-05-01)"
   id="svg850"
   version="1.1"
   viewBox="0 0 210 297"
   height="297mm"
   width="210mm">
  <defs
     id="defs844" />
  <sodipodi:namedview
     inkscape:window-maximized="0"
     inkscape:window-y="0"
     inkscape:window-x="234"
     inkscape:window-height="1040"
     inkscape:window-width="1260"
     showgrid="false"
     inkscape:document-rotation="0"
     inkscape:current-layer="layer1"
     inkscape:document-units="mm"
     inkscape:cy="560"
     inkscape:cx="400"
     inkscape:zoom="0.35"
     inkscape:pageshadow="2"
     inkscape:pageopacity="0.0"
     borderopacity="1.0"
     bordercolor="#666666"
     pagecolor="#ffffff"
     id="base" />
  <metadata
     id="metadata847">
    <rdf:RDF>
      <cc:Work
         rdf:about="">
        <dc:format>image/svg+xml</dc:format>
        <dc:type
           rdf:resource="http://purl.org/dc/dcmitype/StillImage" />
        <dc:title></dc:title>
      </cc:Work>
    </rdf:RDF>
  </metadata>
  <g
     id="layer1"
     inkscape:groupmode="layer"
     inkscape:label="Capa 1">
    <path
       id="path1614"
       style="fill:#ffffff;fill-opacity:1;stroke:none;stroke-width:0.264583;stroke-linecap:square;stroke-linejoin:round;stroke-miterlimit:4;stroke-dasharray:none;stroke-opacity:1;paint-order:fill markers stroke"
       d="m 57.898482,2.4568207 a 37.041667,37.041667 0 0 0 -3.280421,3.28094 37.041667,37.041667 0 0 1 0.115756,0.1322898 37.041667,37.041667 0 0 1 0.172601,0.1989402 37.041667,37.041667 0 0 1 0.171047,0.1999999 37.041667,37.041667 0 0 1 0.1695,0.2010302 37.041667,37.041667 0 0 1 0.168463,0.2025599 37.041667,37.041667 0 0 1 0.166399,0.2035998 37.041667,37.041667 0 0 1 0.165365,0.20516 37.041667,37.041667 0 0 1 0.163814,0.2061901 37.041667,37.041667 0 0 1 0.162781,0.2072201 37.041667,37.041667 0 0 1 0.160714,0.2082498 37.041667,37.041667 0 0 1 0.159164,0.2092902 37.041667,37.041667 0 0 1 0.158129,0.2108499 37.041667,37.041667 0 0 1 0.15658,0.2113399 37.041667,37.041667 0 0 1 0.154512,0.2129102 37.041667,37.041667 0 0 1 0.153479,0.21395 37.041667,37.041667 0 0 1 0.151929,0.21497 37.041667,37.041667 0 0 1 0.150378,0.2165398 37.041667,37.041667 0 0 1 0.148829,0.21703 37.041667,37.041667 0 0 1 0.147278,0.2180701 37.041667,37.041667 0 0 1 0.145727,0.2190999 37.041667,37.041667 0 0 1 0.144177,0.2206705 37.041667,37.041667 0 0 1 0.142627,0.22119 37.041667,37.041667 0 0 1 0.14056,0.2222 37.041667,37.041667 0 0 1 0.139526,0.22325 37.041667,37.041667 0 0 1 0.137977,0.22426 37.041667,37.041667 0 0 1 0.136425,0.22532 37.041667,37.041667 0 0 1 0.134359,0.22633 37.041667,37.041667 0 0 1 0.132808,0.22738 37.041667,37.041667 0 0 1 0.131775,0.22788 37.041667,37.041667 0 0 1 0.129708,0.22895 37.041667,37.041667 0 0 1 0.128158,0.22995 37.041667,37.041667 0 0 1 0.12609,0.23101 37.041667,37.041667 0 0 1 0.125057,0.23201 37.041667,37.041667 0 0 1 0.12299,0.23254 37.041667,37.041667 0 0 1 0.121957,0.23357 37.041667,37.041667 0 0 1 0.119889,0.23411 37.041667,37.041667 0 0 1 0.117822,0.23513 37.041667,37.041667 0 0 1 0.02687,0.0548 27.78125,27.78125 0 0 1 0.09767,-0.13229 27.78125,27.78125 0 0 1 0.136943,-0.1824 27.78125,27.78125 0 0 1 0.138493,-0.1814 27.78125,27.78125 0 0 1 0.140043,-0.17984 27.78125,27.78125 0 0 1 0.141077,-0.1788 27.78125,27.78125 0 0 1 0.143143,-0.17775 27.78125,27.78125 0 0 1 0.144177,-0.17621 27.78125,27.78125 0 0 1 0.145728,-0.17571 27.78125,27.78125 0 0 1 0.147278,-0.17415 27.78125,27.78125 0 0 1 0.148311,-0.17262 27.78125,27.78125 0 0 1 0.149862,-0.17206 27.78125,27.78125 0 0 1 0.151412,-0.17002 27.78125,27.78125 0 0 1 0.152962,-0.16952 27.78125,27.78125 0 0 1 0.153996,-0.16793 27.78125,27.78125 0 0 1 0.155546,-0.16639 27.78125,27.78125 0 0 1 0.157096,-0.16537 27.78125,27.78125 0 0 1 0.15813,-0.16433 27.78125,27.78125 0 0 1 0.15968,-0.1628 27.78125,27.78125 0 0 1 0.161231,-0.16174 27.78125,27.78125 0 0 1 0.162264,-0.15967 27.78125,27.78125 0 0 1 0.163297,-0.15918 27.78125,27.78125 0 0 1 0.164848,-0.15708 27.78125,27.78125 0 0 1 0.166398,-0.1565803 27.78125,27.78125 0 0 1 0.167432,-0.1545201 27.78125,27.78125 0 0 1 0.168465,-0.15348 27.78125,27.78125 0 0 1 0.170015,-0.1519299 27.78125,27.78125 0 0 1 0.171049,-0.15036 27.78125,27.78125 0 0 1 0.1726,-0.14936 27.78125,27.78125 0 0 1 0.173633,-0.1477901 27.78125,27.78125 0 0 1 0.174666,-0.14624 27.78125,27.78125 0 0 1 0.176217,-0.1447001 27.78125,27.78125 0 0 1 0.17725,-0.1436698 27.78125,27.78125 0 0 1 0.178283,-0.1421001 27.78125,27.78125 0 0 1 0.179317,-0.14005 27.78125,27.78125 0 0 1 0.180868,-0.13901 27.78125,27.78125 0 0 1 0.181901,-0.1379799 27.78125,27.78125 0 0 1 0.182935,-0.13589 27.78125,27.78125 0 0 1 0.0248,-0.0181 37.041667,37.041667 0 0 1 -0.04857,-0.023799 A 37.041667,37.041667 0 0 1 65.654598,7.716431 37.041667,37.041667 0 0 1 65.419987,7.5965512 37.041667,37.041667 0 0 1 65.186409,7.4751112 37.041667,37.041667 0 0 1 64.953865,7.3521313 37.041667,37.041667 0 0 1 64.721838,7.2270611 37.041667,37.041667 0 0 1 64.491361,7.1009613 37.041667,37.041667 0 0 1 64.260885,6.9728212 37.041667,37.041667 0 0 1 64.031958,6.8431012 37.041667,37.041667 0 0 1 63.804066,6.7118407 37.041667,37.041667 0 0 1 63.576689,6.5785105 37.041667,37.041667 0 0 1 63.350347,6.4441606 37.041667,37.041667 0 0 1 63.125037,6.3077407 37.041667,37.041667 0 0 1 62.900762,6.1702907 37.041667,37.041667 0 0 1 62.67752,6.0307508 37.041667,37.041667 0 0 1 62.455311,5.8896707 37.041667,37.041667 0 0 1 62.233619,5.7475606 37.041667,37.041667 0 0 1 62.013477,5.6033907 37.041667,37.041667 0 0 1 61.794369,5.4576606 a 37.041667,37.041667 0 0 1 -0.218591,-0.14727 37.041667,37.041667 0 0 1 -0.217041,-0.1488299 37.041667,37.041667 0 0 1 -0.216008,-0.15038 37.041667,37.041667 0 0 1 -0.214974,-0.15143 37.041667,37.041667 0 0 1 -0.21394,-0.15345 37.041667,37.041667 0 0 1 -0.212907,-0.15505 37.041667,37.041667 0 0 1 -0.211873,-0.15605 37.041667,37.041667 0 0 1 -0.21084,-0.15814 37.041667,37.041667 0 0 1 -0.20929,-0.15915 37.041667,37.041667 0 0 1 -0.208256,-0.16124 37.041667,37.041667 0 0 1 -0.207222,-0.16227 37.041667,37.041667 0 0 1 -0.206189,-0.1638 37.041667,37.041667 0 0 1 -0.205155,-0.16536 37.041667,37.041667 0 0 1 -0.203606,-0.16643 37.041667,37.041667 0 0 1 -0.202571,-0.16846 37.041667,37.041667 0 0 1 -0.201538,-0.16949 37.041667,37.041667 0 0 1 -0.199988,-0.17105 37.041667,37.041667 0 0 1 -0.198954,-0.17209 37.041667,37.041667 0 0 1 -0.136943,-0.12091 z m 49.000628,5.3e-4 a 37.041667,37.041667 0 0 1 -0.13229,0.11575 37.041667,37.041667 0 0 1 -0.19896,0.17259 37.041667,37.041667 0 0 1 -0.19998,0.17105 37.041667,37.041667 0 0 1 -0.20103,0.1695 37.041667,37.041667 0 0 1 -0.20257,0.16846 37.041667,37.041667 0 0 1 -0.2036,0.16639 37.041667,37.041667 0 0 1 -0.20516,0.16537 37.041667,37.041667 0 0 1 -0.20619,0.16383 37.041667,37.041667 0 0 1 -0.20722,0.16227 37.041667,37.041667 0 0 1 -0.20826,0.16121 37.041667,37.041667 0 0 1 -0.20929,0.15917 37.041667,37.041667 0 0 1 -0.21084,0.15812 37.041667,37.041667 0 0 1 -0.21135,0.15658 37.041667,37.041667 0 0 1 -0.21291,0.15451 37.041667,37.041667 0 0 1 -0.21394,0.15349 37.041667,37.041667 0 0 1 -0.21498,0.15192 37.041667,37.041667 0 0 1 -0.21652,0.15039 37.041667,37.041667 0 0 1 -0.21704,0.14883 37.041667,37.041667 0 0 1 -0.21807,0.14727 37.041667,37.041667 0 0 1 -0.21911,0.1457301 37.041667,37.041667 0 0 1 -0.22066,0.1441698 37.041667,37.041667 0 0 1 -0.22117,0.1426401 37.041667,37.041667 0 0 1 -0.22221,0.14054 37.041667,37.041667 0 0 1 -0.22325,0.13954 37.041667,37.041667 0 0 1 -0.22427,0.1379799 37.041667,37.041667 0 0 1 -0.22531,0.13589 37.041667,37.041667 0 0 1 -0.22634,0.1348902 37.041667,37.041667 0 0 1 -0.22738,0.1328197 37.041667,37.041667 0 0 1 -0.22789,0.1317601 37.041667,37.041667 0 0 1 -0.22893,0.1297001 37.041667,37.041667 0 0 1 -0.22996,0.12816 37.041667,37.041667 0 0 1 -0.23099,0.1261099 37.041667,37.041667 0 0 1 -0.232031,0.12504 37.041667,37.041667 0 0 1 -0.232545,0.123 37.041667,37.041667 0 0 1 -0.233576,0.1219499 37.041667,37.041667 0 0 1 -0.234096,0.1198801 37.041667,37.041667 0 0 1 -0.235127,0.1178501 37.041667,37.041667 0 0 1 -0.05478,0.0268 27.78125,27.78125 0 0 1 0.132292,0.0977 27.78125,27.78125 0 0 1 0.182417,0.13692 27.78125,27.78125 0 0 1 0.181385,0.1385099 27.78125,27.78125 0 0 1 0.179835,0.14004 27.78125,27.78125 0 0 1 0.1788,0.1410801 27.78125,27.78125 0 0 1 0.177765,0.1431398 27.78125,27.78125 0 0 1 0.176221,0.1441701 27.78125,27.78125 0 0 1 0.1757,0.1457299 27.78125,27.78125 0 0 1 0.17415,0.14727 27.78125,27.78125 0 0 1 0.1726,0.1483201 27.78125,27.78125 0 0 1 0.17208,0.14986 27.78125,27.78125 0 0 1 0.17001,0.1513999 27.78125,27.78125 0 0 1 0.1695,0.15298 27.78125,27.78125 0 0 1 0.16795,0.1539901 27.78125,27.78125 0 0 1 0.1664,0.1555504 27.78125,27.78125 0 0 1 0.16536,0.15708 27.78125,27.78125 0 0 1 0.16434,0.15814 27.78125,27.78125 0 0 1 0.16278,0.15968 27.78125,27.78125 0 0 1 0.16123,0.16123 27.78125,27.78125 0 0 1 0.16019,0.16174 27.78125,27.78125 0 0 1 0.15917,0.16383 27.78125,27.78125 0 0 1 0.15709,0.16484 27.78125,27.78125 0 0 1 0.15658,0.1664 27.78125,27.78125 0 0 1 0.15452,0.16742 27.78125,27.78125 0 0 1 0.15347,0.16846 27.78125,27.78125 0 0 1 0.15193,0.17002 27.78125,27.78125 0 0 1 0.15038,0.17106 27.78125,27.78125 0 0 1 0.14935,0.17261 27.78125,27.78125 0 0 1 0.14779,0.173619 27.78125,27.78125 0 0 1 0.14625,0.174681 27.78125,27.78125 0 0 1 0.14469,0.17621 27.78125,27.78125 0 0 1 0.14366,0.17725 27.78125,27.78125 0 0 1 0.14211,0.17827 27.78125,27.78125 0 0 1 0.14004,0.17934 27.78125,27.78125 0 0 1 0.13901,0.18087 27.78125,27.78125 0 0 1 0.13798,0.1819 27.78125,27.78125 0 0 1 0.13591,0.18293 27.78125,27.78125 0 0 1 0.0181,0.0248 37.041667,37.041667 0 0 1 0.0238,-0.0486 37.041667,37.041667 0 0 1 0.11833,-0.23513 37.041667,37.041667 0 0 1 0.1199,-0.23461 37.041667,37.041667 0 0 1 0.12143,-0.23357 37.041667,37.041667 0 0 1 0.123,-0.23254 37.041667,37.041667 0 0 1 0.12505,-0.23202 37.041667,37.041667 0 0 1 0.12609,-0.23047 37.041667,37.041667 0 0 1 0.12816,-0.23048 37.041667,37.041667 0 0 1 0.12971,-0.22895 37.041667,37.041667 0 0 1 0.13126,-0.22788 37.041667,37.041667 0 0 1 0.13332,-0.22739 37.041667,37.041667 0 0 1 0.13436,-0.22632 37.041667,37.041667 0 0 1 0.13591,-0.22532 37.041667,37.041667 0 0 1 0.13797,-0.22429 37.041667,37.041667 0 0 1 0.13953,-0.22323 37.041667,37.041667 0 0 1 0.14108,-0.22222 37.041667,37.041667 0 0 1 0.14211,-0.22167 37.041667,37.041667 0 0 1 0.14417,-0.2201599 37.041667,37.041667 0 0 1 0.14573,-0.2191001 37.041667,37.041667 0 0 1 0.14728,-0.2185998 37.041667,37.041667 0 0 1 0.14883,-0.2170401 37.041667,37.041667 0 0 1 0.15038,-0.2160001 37.041667,37.041667 0 0 1 0.15141,-0.2149699 37.041667,37.041667 0 0 1 0.15348,-0.2139501 37.041667,37.041667 0 0 1 0.15503,-0.2129099 37.041667,37.041667 0 0 1 0.15606,-0.2118799 37.041667,37.041667 0 0 1 0.15813,-0.21082 37.041667,37.041667 0 0 1 0.15916,-0.2092802 37.041667,37.041667 0 0 1 0.16123,-0.2082799 37.041667,37.041667 0 0 1 0.16227,-0.2072201 37.041667,37.041667 0 0 1 0.16381,-0.2061898 37.041667,37.041667 0 0 1 0.16537,-0.2051302 37.041667,37.041667 0 0 1 0.16639,-0.2036299 37.041667,37.041667 0 0 1 0.16847,-0.20256 37.041667,37.041667 0 0 1 0.1695,-0.20154 37.041667,37.041667 0 0 1 0.17105,-0.1999901 37.041667,37.041667 0 0 1 0.17208,-0.1989399 37.041667,37.041667 0 0 1 0.12092,-0.1369499 37.041667,37.041667 0 0 0 -3.28096,-3.2804095 z M 60.019283,46.69856 a 37.041667,37.041667 0 0 1 -0.02377,0.0486 37.041667,37.041667 0 0 1 -0.118339,0.235138 37.041667,37.041667 0 0 1 -0.11989,0.234601 37.041667,37.041667 0 0 1 -0.121439,0.233579 37.041667,37.041667 0 0 1 -0.12299,0.23254 37.041667,37.041667 0 0 1 -0.125057,0.232012 37.041667,37.041667 0 0 1 -0.126091,0.230481 37.041667,37.041667 0 0 1 -0.128157,0.229978 37.041667,37.041667 0 0 1 -0.129708,0.229442 37.041667,37.041667 0 0 1 -0.131258,0.227891 37.041667,37.041667 0 0 1 -0.133325,0.227377 37.041667,37.041667 0 0 1 -0.134359,0.22633 37.041667,37.041667 0 0 1 -0.135909,0.225322 37.041667,37.041667 0 0 1 -0.137976,0.224279 37.041667,37.041667 0 0 1 -0.139527,0.223229 37.041667,37.041667 0 0 1 -0.141076,0.222232 37.041667,37.041667 0 0 1 -0.14211,0.22166 37.041667,37.041667 0 0 1 -0.144178,0.220159 37.041667,37.041667 0 0 1 -0.145727,0.21911 37.041667,37.041667 0 0 1 -0.147278,0.218591 37.041667,37.041667 0 0 1 -0.148828,0.21704 37.041667,37.041667 0 0 1 -0.150378,0.216008 37.041667,37.041667 0 0 1 -0.151412,0.214972 37.041667,37.041667 0 0 1 -0.153479,0.213939 37.041667,37.041667 0 0 1 -0.15503,0.21291 37.041667,37.041667 0 0 1 -0.156063,0.211881 37.041667,37.041667 0 0 1 -0.158129,0.21082 37.041667,37.041667 0 0 1 -0.159164,0.209288 37.041667,37.041667 0 0 1 -0.16123,0.20828 37.041667,37.041667 0 0 1 -0.162263,0.207222 37.041667,37.041667 0 0 1 -0.163815,0.20619 37.041667,37.041667 0 0 1 -0.165364,0.205129 37.041667,37.041667 0 0 1 -0.166399,0.20362 37.041667,37.041667 0 0 1 -0.168466,0.202571 37.041667,37.041667 0 0 1 -0.169497,0.20103 37.041667,37.041667 0 0 1 -0.171051,0.200499 37.041667,37.041667 0 0 1 -0.172082,0.19894 37.041667,37.041667 0 0 1 -0.120922,0.136951 37.041667,37.041667 0 0 0 3.280936,3.28041 37.041667,37.041667 0 0 1 0.132292,-0.115761 37.041667,37.041667 0 0 1 0.198954,-0.172579 37.041667,37.041667 0 0 1 0.199988,-0.171061 37.041667,37.041667 0 0 1 0.201021,-0.16949 37.041667,37.041667 0 0 1 0.202572,-0.16846 37.041667,37.041667 0 0 1 0.203605,-0.166399 37.041667,37.041667 0 0 1 0.205155,-0.165362 37.041667,37.041667 0 0 1 0.206189,-0.16383 37.041667,37.041667 0 0 1 0.207223,-0.162769 37.041667,37.041667 0 0 1 0.208256,-0.160711 37.041667,37.041667 0 0 1 0.209289,-0.159168 37.041667,37.041667 0 0 1 0.21084,-0.15812 37.041667,37.041667 0 0 1 0.211357,-0.15658 37.041667,37.041667 0 0 1 0.212907,-0.15452 37.041667,37.041667 0 0 1 0.21394,-0.153482 37.041667,37.041667 0 0 1 0.214974,-0.151918 37.041667,37.041667 0 0 1 0.216524,-0.150392 37.041667,37.041667 0 0 1 0.217041,-0.148828 37.041667,37.041667 0 0 1 0.218075,-0.14727 37.041667,37.041667 0 0 1 0.219108,-0.14573 37.041667,37.041667 0 0 1 0.220658,-0.144171 37.041667,37.041667 0 0 1 0.221175,-0.14264 37.041667,37.041667 0 0 1 0.222209,-0.140549 37.041667,37.041667 0 0 1 0.223242,-0.139541 37.041667,37.041667 0 0 1 0.224276,-0.137981 37.041667,37.041667 0 0 1 0.225309,-0.136419 37.041667,37.041667 0 0 1 0.226343,-0.13435 37.041667,37.041667 0 0 1 0.227376,-0.132821 37.041667,37.041667 0 0 1 0.227893,-0.131768 37.041667,37.041667 0 0 1 0.228927,-0.12969 37.041667,37.041667 0 0 1 0.22996,-0.12817 37.041667,37.041667 0 0 1 0.230994,-0.1261 37.041667,37.041667 0 0 1 0.232027,-0.12504 37.041667,37.041667 0 0 1 0.232544,-0.12301 37.041667,37.041667 0 0 1 0.233577,-0.121941 37.041667,37.041667 0 0 1 0.234095,-0.11988 37.041667,37.041667 0 0 1 0.235127,-0.117851 37.041667,37.041667 0 0 1 0.05478,-0.0269 27.78125,27.78125 0 0 1 -0.132291,-0.0977 A 27.78125,27.78125 0 0 1 65.623596,52.38294 27.78125,27.78125 0 0 1 65.442212,52.24443 27.78125,27.78125 0 0 1 65.262378,52.104389 27.78125,27.78125 0 0 1 65.083577,51.963311 27.78125,27.78125 0 0 1 64.90581,51.820171 27.78125,27.78125 0 0 1 64.729594,51.676 27.78125,27.78125 0 0 1 64.553894,51.53027 27.78125,27.78125 0 0 1 64.379744,51.383 27.78125,27.78125 0 0 1 64.207145,51.234669 27.78125,27.78125 0 0 1 64.035062,51.084809 27.78125,27.78125 0 0 1 63.865047,50.93342 27.78125,27.78125 0 0 1 63.695548,50.780441 27.78125,27.78125 0 0 1 63.5276,50.62645 27.78125,27.78125 0 0 1 63.361202,50.470899 27.78125,27.78125 0 0 1 63.195837,50.313821 27.78125,27.78125 0 0 1 63.031506,50.15568 27.78125,27.78125 0 0 1 62.868725,49.996001 27.78125,27.78125 0 0 1 62.707495,49.834759 27.78125,27.78125 0 0 1 62.547298,49.67249 27.78125,27.78125 0 0 1 62.388135,49.509189 27.78125,27.78125 0 0 1 62.231038,49.344359 27.78125,27.78125 0 0 1 62.074459,49.17796 27.78125,27.78125 0 0 1 61.919946,49.010529 27.78125,27.78125 0 0 1 61.766467,48.842071 27.78125,27.78125 0 0 1 61.614538,48.67205 27.78125,27.78125 0 0 1 61.46416,48.501 27.78125,27.78125 0 0 1 61.314815,48.32838 27.78125,27.78125 0 0 1 61.16702,48.154761 27.78125,27.78125 0 0 1 61.020776,47.980091 27.78125,27.78125 0 0 1 60.876082,47.80387 27.78125,27.78125 0 0 1 60.732422,47.626631 27.78125,27.78125 0 0 1 60.590312,47.44835 27.78125,27.78125 0 0 1 60.450268,47.26902 27.78125,27.78125 0 0 1 60.311259,47.088151 27.78125,27.78125 0 0 1 60.173283,46.90625 27.78125,27.78125 0 0 1 60.037374,46.72332 27.78125,27.78125 0 0 1 60.019284,46.69853 Z m 44.759027,0 a 27.78125,27.78125 0 0 1 -0.0977,0.1323 27.78125,27.78125 0 0 1 -0.13694,0.182401 27.78125,27.78125 0 0 1 -0.1385,0.180869 27.78125,27.78125 0 0 1 -0.14004,0.180369 27.78125,27.78125 0 0 1 -0.14108,0.1788 27.78125,27.78125 0 0 1 -0.14314,0.177753 27.78125,27.78125 0 0 1 -0.14418,0.176209 27.78125,27.78125 0 0 1 -0.14573,0.17571 27.78125,27.78125 0 0 1 -0.14727,0.174149 27.78125,27.78125 0 0 1 -0.14832,0.172611 27.78125,27.78125 0 0 1 -0.14986,0.171559 27.78125,27.78125 0 0 1 -0.15141,0.170521 27.78125,27.78125 0 0 1 -0.15296,0.169519 27.78125,27.78125 0 0 1 -0.154,0.167931 27.78125,27.78125 0 0 1 -0.15554,0.166399 27.78125,27.78125 0 0 1 -0.1571,0.165359 27.78125,27.78125 0 0 1 -0.15813,0.164341 27.78125,27.78125 0 0 1 -0.15968,0.16279 27.78125,27.78125 0 0 1 -0.16123,0.161221 27.78125,27.78125 0 0 1 -0.16226,0.1602 27.78125,27.78125 0 0 1 -0.1633,0.159168 27.78125,27.78125 0 0 1 -0.16485,0.157091 27.78125,27.78125 0 0 1 -0.1664,0.15607 27.78125,27.78125 0 0 1 -0.16743,0.155019 27.78125,27.78125 0 0 1 -0.16846,0.153491 27.78125,27.78125 0 0 1 -0.17002,0.151921 27.78125,27.78125 0 0 1 -0.17105,0.15037 27.78125,27.78125 0 0 1 -0.1726,0.14935 27.78125,27.78125 0 0 1 -0.17363,0.147799 27.78125,27.78125 0 0 1 -0.17467,0.146229 27.78125,27.78125 0 0 1 -0.176212,0.144701 27.78125,27.78125 0 0 1 -0.177253,0.143671 27.78125,27.78125 0 0 1 -0.178281,0.141579 27.78125,27.78125 0 0 1 -0.179319,0.140571 27.78125,27.78125 0 0 1 -0.180867,0.13902 27.78125,27.78125 0 0 1 -0.181901,0.13798 27.78125,27.78125 0 0 1 -0.182935,0.13589 27.78125,27.78125 0 0 1 -0.02479,0.0181 37.041667,37.041667 0 0 1 0.04857,0.02381 37.041667,37.041667 0 0 1 0.23513,0.118351 37.041667,37.041667 0 0 1 0.234611,0.119888 37.041667,37.041667 0 0 1 0.233577,0.121441 37.041667,37.041667 0 0 1 0.232543,0.122981 37.041667,37.041667 0 0 1 0.232027,0.124557 37.041667,37.041667 0 0 1 0.23048,0.126612 37.041667,37.041667 0 0 1 0.23047,0.128129 37.041667,37.041667 0 0 1 0.22893,0.129731 37.041667,37.041667 0 0 1 0.2279,0.13126 37.041667,37.041667 0 0 1 0.22737,0.133321 37.041667,37.041667 0 0 1 0.22634,0.134358 37.041667,37.041667 0 0 1 0.22531,0.135911 37.041667,37.041667 0 0 1 0.22428,0.137959 37.041667,37.041667 0 0 1 0.22324,0.139541 37.041667,37.041667 0 0 1 0.22221,0.140549 37.041667,37.041667 0 0 1 0.22169,0.142632 37.041667,37.041667 0 0 1 0.22014,0.144169 37.041667,37.041667 0 0 1 0.21911,0.14574 37.041667,37.041667 0 0 1 0.21859,0.147259 37.041667,37.041667 0 0 1 0.21704,0.148831 37.041667,37.041667 0 0 1 0.21601,0.150389 37.041667,37.041667 0 0 1 0.21497,0.151421 37.041667,37.041667 0 0 1 0.21394,0.153459 37.041667,37.041667 0 0 1 0.21291,0.155051 37.041667,37.041667 0 0 1 0.21187,0.156051 37.041667,37.041667 0 0 1 0.21085,0.158139 37.041667,37.041667 0 0 1 0.20928,0.159149 37.041667,37.041667 0 0 1 0.20826,0.16123 37.041667,37.041667 0 0 1 0.20722,0.162271 37.041667,37.041667 0 0 1 0.20619,0.163809 37.041667,37.041667 0 0 1 0.20516,0.165362 37.041667,37.041667 0 0 1 0.2036,0.166418 37.041667,37.041667 0 0 1 0.20257,0.16846 37.041667,37.041667 0 0 1 0.20154,0.1695 37.041667,37.041667 0 0 1 0.19999,0.17105 37.041667,37.041667 0 0 1 0.19895,0.17208 37.041667,37.041667 0 0 1 0.13695,0.12092 37.041667,37.041667 0 0 0 3.28093,-3.280939 37.041667,37.041667 0 0 1 -0.11627,-0.132289 37.041667,37.041667 0 0 1 -0.1726,-0.198941 37.041667,37.041667 0 0 1 -0.17105,-0.200001 37.041667,37.041667 0 0 1 -0.1695,-0.20103 37.041667,37.041667 0 0 1 -0.16846,-0.20257 37.041667,37.041667 0 0 1 -0.1664,-0.203589 37.041667,37.041667 0 0 1 -0.16536,-0.205161 37.041667,37.041667 0 0 1 -0.16382,-0.20619 37.041667,37.041667 0 0 1 -0.16278,-0.207219 37.041667,37.041667 0 0 1 -0.16071,-0.208261 37.041667,37.041667 0 0 1 -0.15916,-0.20928 37.041667,37.041667 0 0 1 -0.15814,-0.21085 37.041667,37.041667 0 0 1 -0.15658,-0.21188 37.041667,37.041667 0 0 1 -0.15451,-0.212379 37.041667,37.041667 0 0 1 -0.15348,-0.213939 37.041667,37.041667 0 0 1 -0.15193,-0.215501 37.041667,37.041667 0 0 1 -0.15037,-0.216011 37.041667,37.041667 0 0 1 -0.14883,-0.21704 37.041667,37.041667 0 0 1 -0.14728,-0.21807 37.041667,37.041667 0 0 1 -0.14573,-0.219628 37.041667,37.041667 0 0 1 -0.14417,-0.220131 37.041667,37.041667 0 0 1 -0.14263,-0.221191 37.041667,37.041667 0 0 1 -0.14056,-0.2222 37.041667,37.041667 0 0 1 -0.13953,-0.22325 37.041667,37.041667 0 0 1 -0.13797,-0.224269 37.041667,37.041667 0 0 1 -0.13643,-0.225311 37.041667,37.041667 0 0 1 -0.13436,-0.22633 37.041667,37.041667 0 0 1 -0.13281,-0.22738 37.041667,37.041667 0 0 1 -0.13177,-0.227888 37.041667,37.041667 0 0 1 -0.12971,-0.228942 37.041667,37.041667 0 0 1 -0.12816,-0.229949 37.041667,37.041667 0 0 1 -0.12609,-0.231011 37.041667,37.041667 0 0 1 -0.12505,-0.23201 37.041667,37.041667 0 0 1 -0.12299,-0.23254 37.041667,37.041667 0 0 1 -0.12196,-0.233579 37.041667,37.041667 0 0 1 -0.11989,-0.234101 37.041667,37.041667 0 0 1 -0.11782,-0.23514 37.041667,37.041667 0 0 1 -0.0269,-0.0548 z"
       inkscape:export-xdpi="96"
       inkscape:export-ydpi="96" />
  </g>
</svg>
